{
	"asset":{
		"generator":"Khronos glTF Blender I/O v5.2.40",
		"version":"2.0"
	},
	"scene":0,
	"scenes":[
		{
			"name":"Scene",
			"nodes":[
				1
			]
		}
	],
	"nodes":[
		{
			"mesh":0,
			"name":"books_and_binders",
			"translation":[
				-0.041999999433755875,
				0.11999999731779099,
				-0.003000000026077032
			]
		},
		{
			"children":[
				0
			],
			"extras":{
				"asset_id":"book_binder_set",
				"front_blender":"-Y",
				"units":"meters",
				"origin_convention":"center of footprint on support plane"
			},
			"name":"book_binder_set"
		}
	],
	"materials":[
		{
			"name":"lab_paper",
			"pbrMetallicRoughness":{
				"baseColorFactor":[
					0.8799999952316284,
					0.8500000238418579,
					0.7599999904632568,
					1
				],
				"metallicFactor":0,
				"roughnessFactor":0.6800000071525574
			}
		},
		{
			"name":"lab_teal",
			"pbrMetallicRoughness":{
				"baseColorFactor":[
					0.03500000014901161,
					0.25,
					0.25,
					1
				],
				"metallicFactor":0,
				"roughnessFactor":0.6800000071525574
			}
		},
		{
			"name":"lab_dark",
			"pbrMetallicRoughness":{
				"baseColorFactor":[
					0.024000000208616257,
					0.03200000151991844,
					0.03700000047683716,
					1
				],
				"metallicFactor":0,
				"roughnessFactor":0.6800000071525574
			}
		},
		{
			"name":"lab_warm",
			"pbrMetallicRoughness":{
				"baseColorFactor":[
					0.6399999856948853,
					0.6100000143051147,
					0.5400000214576721,
					1
				],
				"metallicFactor":0,
				"roughnessFactor":0.6800000071525574
			}
		}
	],
	"meshes":[
		{
			"name":"books_and_binders_mesh",
			"primitives":[
				{
					"attributes":{
						"POSITION":0,
						"NORMAL":1,
						"TEXCOORD_0":2,
						"TANGENT":3
					},
					"indices":4,
					"material":0
				},
				{
					"attributes":{
						"POSITION":5,
						"NORMAL":6,
						"TEXCOORD_0":7,
						"TANGENT":8
					},
					"indices":4,
					"material":1
				},
				{
					"attributes":{
						"POSITION":9,
						"NORMAL":10,
						"TEXCOORD_0":11,
						"TANGENT":12
					},
					"indices":4,
					"material":2
				},
				{
					"attributes":{
						"POSITION":13,
						"NORMAL":14,
						"TEXCOORD_0":15,
						"TANGENT":16
					},
					"indices":4,
					"material":3
				}
			]
		}
	],
	"accessors":[
		{
			"bufferView":0,
			"componentType":5126,
			"count":288,
			"max":[
				0.09849999845027924,
				0.14399999380111694,
				0.08100000023841858
			],
			"min":[
				-0.014499999582767487,
				-0.11400000005960464,
				-0.08100000023841858
			],
			"type":"VEC3"
		},
		{
			"bufferView":1,
			"componentType":5126,
			"count":288,
			"type":"VEC3"
		},
		{
			"bufferView":2,
			"componentType":5126,
			"count":288,
			"type":"VEC2"
		},
		{
			"bufferView":3,
			"componentType":5126,
			"count":288,
			"type":"VEC4"
		},
		{
			"bufferView":4,
			"componentType":5123,
			"count":396,
			"type":"SCALAR"
		},
		{
			"bufferView":5,
			"componentType":5126,
			"count":288,
			"max":[
				0.01899999938905239,
				0.11999999731779099,
				0.09300000220537186
			],
			"min":[
				-0.01900000125169754,
				-0.11999999731779099,
				-0.08700000494718552
			],
			"type":"VEC3"
		},
		{
			"bufferView":6,
			"componentType":5126,
			"count":288,
			"type":"VEC3"
		},
		{
			"bufferView":7,
			"componentType":5126,
			"count":288,
			"type":"VEC2"
		},
		{
			"bufferView":8,
			"componentType":5126,
			"count":288,
			"type":"VEC4"
		},
		{
			"bufferView":9,
			"componentType":5126,
			"count":288,
			"max":[
				0.061000000685453415,
				0.15000000596046448,
				0.09300000220537186
			],
			"min":[
				0.022999998182058334,
				-0.11999999731779099,
				-0.08700000494718552
			],
			"type":"VEC3"
		},
		{
			"bufferView":10,
			"componentType":5126,
			"count":288,
			"type":"VEC3"
		},
		{
			"bufferView":11,
			"componentType":5126,
			"count":288,
			"type":"VEC2"
		},
		{
			"bufferView":12,
			"componentType":5126,
			"count":288,
			"type":"VEC4"
		},
		{
			"bufferView":13,
			"componentType":5126,
			"count":288,
			"max":[
				0.10299999266862869,
				0.10000000149011612,
				0.09300000220537186
			],
			"min":[
				0.0650000050663948,
				-0.11999999731779099,
				-0.08700000494718552
			],
			"type":"VEC3"
		},
		{
			"bufferView":14,
			"componentType":5126,
			"count":288,
			"type":"VEC3"
		},
		{
			"bufferView":15,
			"componentType":5126,
			"count":288,
			"type":"VEC2"
		},
		{
			"bufferView":16,
			"componentType":5126,
			"count":288,
			"type":"VEC4"
		}
	],
	"bufferViews":[
		{
			"buffer":0,
			"byteLength":3456,
			"byteOffset":0,
			"target":34962
		},
		{
			"buffer":0,
			"byteLength":3456,
			"byteOffset":3456,
			"target":34962
		},
		{
			"buffer":0,
			"byteLength":2304,
			"byteOffset":6912,
			"target":34962
		},
		{
			"buffer":0,
			"byteLength":4608,
			"byteOffset":9216,
			"target":34962
		},
		{
			"buffer":0,
			"byteLength":792,
			"byteOffset":13824,
			"target":34963
		},
		{
			"buffer":0,
			"byteLength":3456,
			"byteOffset":14616,
			"target":34962
		},
		{
			"buffer":0,
			"byteLength":3456,
			"byteOffset":18072,
			"target":34962
		},
		{
			"buffer":0,
			"byteLength":2304,
			"byteOffset":21528,
			"target":34962
		},
		{
			"buffer":0,
			"byteLength":4608,
			"byteOffset":23832,
			"target":34962
		},
		{
			"buffer":0,
			"byteLength":3456,
			"byteOffset":28440,
			"target":34962
		},
		{
			"buffer":0,
			"byteLength":3456,
			"byteOffset":31896,
			"target":34962
		},
		{
			"buffer":0,
			"byteLength":2304,
			"byteOffset":35352,
			"target":34962
		},
		{
			"buffer":0,
			"byteLength":4608,
			"byteOffset":37656,
			"target":34962
		},
		{
			"buffer":0,
			"byteLength":3456,
			"byteOffset":42264,
			"target":34962
		},
		{
			"buffer":0,
			"byteLength":3456,
			"byteOffset":45720,
			"target":34962
		},
		{
			"buffer":0,
			"byteLength":2304,
			"byteOffset":49176,
			"target":34962
		},
		{
			"buffer":0,
			"byteLength":4608,
			"byteOffset":51480,
			"target":34962
		}
	],
	"buffers":[
		{
			"byteLength":56088,
			"uri":"book_binder_set-4997be24cf5fadd24c58bad24fd3d14e.bin"
		}
	]
}
