{
	"asset":{
		"generator":"Khronos glTF Blender I/O v5.2.40",
		"version":"2.0"
	},
	"scene":0,
	"scenes":[
		{
			"name":"Scene",
			"nodes":[
				4
			]
		}
	],
	"nodes":[
		{
			"name":"anchor_mount"
		},
		{
			"extras":{
				"usable_width_m":0.342,
				"usable_height_m":0.082,
				"blender_axes":"local +X right, +Z up, -Y outward; glTF +X right, +Y up, +Z outward"
			},
			"name":"anchor_screen",
			"translation":[
				0,
				0,
				0.04149999842047691
			]
		},
		{
			"mesh":0,
			"name":"countdown_housing_body",
			"translation":[
				0,
				0,
				0.019999999552965164
			]
		},
		{
			"mesh":1,
			"name":"countdown_screen",
			"translation":[
				0,
				0,
				0.04050000011920929
			]
		},
		{
			"children":[
				0,
				1,
				2,
				3
			],
			"extras":{
				"asset_id":"countdown_housing",
				"front_blender":"-Y",
				"units":"meters",
				"origin_convention":"center of rear mounting plane (Y=0)"
			},
			"name":"countdown_housing"
		}
	],
	"materials":[
		{
			"name":"lab_warm",
			"pbrMetallicRoughness":{
				"baseColorFactor":[
					0.6399999856948853,
					0.6100000143051147,
					0.5400000214576721,
					1
				],
				"metallicFactor":0,
				"roughnessFactor":0.6800000071525574
			}
		},
		{
			"name":"lab_dark",
			"pbrMetallicRoughness":{
				"baseColorFactor":[
					0.024000000208616257,
					0.03200000151991844,
					0.03700000047683716,
					1
				],
				"metallicFactor":0,
				"roughnessFactor":0.6800000071525574
			}
		}
	],
	"meshes":[
		{
			"name":"countdown_housing_body_mesh",
			"primitives":[
				{
					"attributes":{
						"POSITION":0,
						"NORMAL":1,
						"TEXCOORD_0":2,
						"TANGENT":3
					},
					"indices":4,
					"material":0
				}
			]
		},
		{
			"name":"countdown_screen_mesh",
			"primitives":[
				{
					"attributes":{
						"POSITION":5,
						"NORMAL":6
					},
					"indices":7,
					"material":1
				}
			]
		}
	],
	"accessors":[
		{
			"bufferView":0,
			"componentType":5126,
			"count":96,
			"max":[
				0.20000000298023224,
				0.07000000029802322,
				0.019999999552965164
			],
			"min":[
				-0.20000000298023224,
				-0.07000000029802322,
				-0.019999999552965164
			],
			"type":"VEC3"
		},
		{
			"bufferView":1,
			"componentType":5126,
			"count":96,
			"type":"VEC3"
		},
		{
			"bufferView":2,
			"componentType":5126,
			"count":96,
			"type":"VEC2"
		},
		{
			"bufferView":3,
			"componentType":5126,
			"count":96,
			"type":"VEC4"
		},
		{
			"bufferView":4,
			"componentType":5123,
			"count":132,
			"type":"SCALAR"
		},
		{
			"bufferView":5,
			"componentType":5126,
			"count":4,
			"max":[
				0.18299999833106995,
				0.05299999937415123,
				0
			],
			"min":[
				-0.18299999833106995,
				-0.05299999937415123,
				0
			],
			"type":"VEC3"
		},
		{
			"bufferView":6,
			"componentType":5126,
			"count":4,
			"type":"VEC3"
		},
		{
			"bufferView":7,
			"componentType":5123,
			"count":6,
			"type":"SCALAR"
		}
	],
	"bufferViews":[
		{
			"buffer":0,
			"byteLength":1152,
			"byteOffset":0,
			"target":34962
		},
		{
			"buffer":0,
			"byteLength":1152,
			"byteOffset":1152,
			"target":34962
		},
		{
			"buffer":0,
			"byteLength":768,
			"byteOffset":2304,
			"target":34962
		},
		{
			"buffer":0,
			"byteLength":1536,
			"byteOffset":3072,
			"target":34962
		},
		{
			"buffer":0,
			"byteLength":264,
			"byteOffset":4608,
			"target":34963
		},
		{
			"buffer":0,
			"byteLength":48,
			"byteOffset":4872,
			"target":34962
		},
		{
			"buffer":0,
			"byteLength":48,
			"byteOffset":4920,
			"target":34962
		},
		{
			"buffer":0,
			"byteLength":12,
			"byteOffset":4968,
			"target":34963
		}
	],
	"buffers":[
		{
			"byteLength":4980,
			"uri":"countdown_housing-845d3b135656e489678b2a8adcc94cce.bin"
		}
	]
}
