{
	"asset":{
		"generator":"Khronos glTF Blender I/O v5.2.40",
		"version":"2.0"
	},
	"scene":0,
	"scenes":[
		{
			"name":"Scene",
			"nodes":[
				3
			]
		}
	],
	"nodes":[
		{
			"mesh":0,
			"name":"lamp_diffuser",
			"translation":[
				0,
				0.2685000002384186,
				0.020500000566244125
			]
		},
		{
			"mesh":1,
			"name":"lamp_shade",
			"translation":[
				0,
				0.3019999861717224,
				0.020500000566244125
			]
		},
		{
			"mesh":2,
			"name":"lamp_structure",
			"translation":[
				0,
				0.008500000461935997,
				-0.016499999910593033
			]
		},
		{
			"children":[
				0,
				1,
				2
			],
			"extras":{
				"asset_id":"desk_lamp",
				"front_blender":"-Y",
				"units":"meters",
				"origin_convention":"center of footprint on support plane"
			},
			"name":"desk_lamp"
		}
	],
	"materials":[
		{
			"name":"lab_paper",
			"pbrMetallicRoughness":{
				"baseColorFactor":[
					0.8799999952316284,
					0.8500000238418579,
					0.7599999904632568,
					1
				],
				"metallicFactor":0,
				"roughnessFactor":0.6800000071525574
			}
		},
		{
			"name":"lab_teal",
			"pbrMetallicRoughness":{
				"baseColorFactor":[
					0.03500000014901161,
					0.25,
					0.25,
					1
				],
				"metallicFactor":0,
				"roughnessFactor":0.6800000071525574
			}
		},
		{
			"name":"lab_dark",
			"pbrMetallicRoughness":{
				"baseColorFactor":[
					0.024000000208616257,
					0.03200000151991844,
					0.03700000047683716,
					1
				],
				"metallicFactor":0,
				"roughnessFactor":0.6800000071525574
			}
		}
	],
	"meshes":[
		{
			"name":"lamp_diffuser_mesh",
			"primitives":[
				{
					"attributes":{
						"POSITION":0,
						"NORMAL":1,
						"TEXCOORD_0":2
					},
					"indices":3,
					"material":0
				}
			]
		},
		{
			"name":"lamp_shade_mesh",
			"primitives":[
				{
					"attributes":{
						"POSITION":4,
						"NORMAL":5,
						"TEXCOORD_0":6
					},
					"indices":3,
					"material":1
				}
			]
		},
		{
			"name":"lamp_structure_mesh",
			"primitives":[
				{
					"attributes":{
						"POSITION":7,
						"NORMAL":8,
						"TEXCOORD_0":9
					},
					"indices":10,
					"material":2
				}
			]
		}
	],
	"accessors":[
		{
			"bufferView":0,
			"componentType":5126,
			"count":96,
			"max":[
				0.05700000002980232,
				0.001500000013038516,
				0.05700000002980232
			],
			"min":[
				-0.05700000002980232,
				-0.001500000013038516,
				-0.05700000002980232
			],
			"type":"VEC3"
		},
		{
			"bufferView":1,
			"componentType":5126,
			"count":96,
			"type":"VEC3"
		},
		{
			"bufferView":2,
			"componentType":5126,
			"count":96,
			"type":"VEC2"
		},
		{
			"bufferView":3,
			"componentType":5123,
			"count":180,
			"type":"SCALAR"
		},
		{
			"bufferView":4,
			"componentType":5126,
			"count":96,
			"max":[
				0.06700000166893005,
				0.03200000151991844,
				0.06700000166893005
			],
			"min":[
				-0.06700000166893005,
				-0.03200000151991844,
				-0.06700000166893005
			],
			"type":"VEC3"
		},
		{
			"bufferView":5,
			"componentType":5126,
			"count":96,
			"type":"VEC3"
		},
		{
			"bufferView":6,
			"componentType":5126,
			"count":96,
			"type":"VEC2"
		},
		{
			"bufferView":7,
			"componentType":5126,
			"count":216,
			"max":[
				0.07100000232458115,
				0.3201960325241089,
				0.07100000232458115
			],
			"min":[
				-0.07100000232458115,
				-0.008500000461935997,
				-0.07100000232458115
			],
			"type":"VEC3"
		},
		{
			"bufferView":8,
			"componentType":5126,
			"count":216,
			"type":"VEC3"
		},
		{
			"bufferView":9,
			"componentType":5126,
			"count":216,
			"type":"VEC2"
		},
		{
			"bufferView":10,
			"componentType":5123,
			"count":396,
			"type":"SCALAR"
		}
	],
	"bufferViews":[
		{
			"buffer":0,
			"byteLength":1152,
			"byteOffset":0,
			"target":34962
		},
		{
			"buffer":0,
			"byteLength":1152,
			"byteOffset":1152,
			"target":34962
		},
		{
			"buffer":0,
			"byteLength":768,
			"byteOffset":2304,
			"target":34962
		},
		{
			"buffer":0,
			"byteLength":360,
			"byteOffset":3072,
			"target":34963
		},
		{
			"buffer":0,
			"byteLength":1152,
			"byteOffset":3432,
			"target":34962
		},
		{
			"buffer":0,
			"byteLength":1152,
			"byteOffset":4584,
			"target":34962
		},
		{
			"buffer":0,
			"byteLength":768,
			"byteOffset":5736,
			"target":34962
		},
		{
			"buffer":0,
			"byteLength":2592,
			"byteOffset":6504,
			"target":34962
		},
		{
			"buffer":0,
			"byteLength":2592,
			"byteOffset":9096,
			"target":34962
		},
		{
			"buffer":0,
			"byteLength":1728,
			"byteOffset":11688,
			"target":34962
		},
		{
			"buffer":0,
			"byteLength":792,
			"byteOffset":13416,
			"target":34963
		}
	],
	"buffers":[
		{
			"byteLength":14208,
			"uri":"desk_lamp-682c6954af05771608452b62ed945ef4.bin"
		}
	]
}
