{
	"asset":{
		"generator":"Khronos glTF Blender I/O v5.2.40",
		"version":"2.0"
	},
	"scene":0,
	"scenes":[
		{
			"name":"Scene",
			"nodes":[
				5
			]
		}
	],
	"nodes":[
		{
			"name":"anchor_mount"
		},
		{
			"extras":{
				"usable_width_m":0.12,
				"usable_height_m":0.076,
				"blender_axes":"local +X right, +Z up, -Y outward; glTF +X right, +Y up, +Z outward"
			},
			"name":"anchor_text",
			"translation":[
				0,
				-0.03500000014901161,
				0.0364999994635582
			]
		},
		{
			"mesh":0,
			"name":"status_face",
			"translation":[
				0,
				-0.03500000014901161,
				0.03550000116229057
			]
		},
		{
			"mesh":1,
			"name":"status_housing",
			"translation":[
				0,
				0,
				0.017500000074505806
			]
		},
		{
			"mesh":2,
			"name":"status_indicator_lens",
			"translation":[
				0,
				0.0729999989271164,
				0.035999998450279236
			]
		},
		{
			"children":[
				0,
				1,
				2,
				3,
				4
			],
			"extras":{
				"asset_id":"door_status_panel",
				"front_blender":"-Y",
				"units":"meters",
				"origin_convention":"center of rear mounting plane (Y=0)"
			},
			"name":"door_status_panel"
		}
	],
	"materials":[
		{
			"name":"lab_dark",
			"pbrMetallicRoughness":{
				"baseColorFactor":[
					0.024000000208616257,
					0.03200000151991844,
					0.03700000047683716,
					1
				],
				"metallicFactor":0,
				"roughnessFactor":0.6800000071525574
			}
		},
		{
			"name":"lab_warm",
			"pbrMetallicRoughness":{
				"baseColorFactor":[
					0.6399999856948853,
					0.6100000143051147,
					0.5400000214576721,
					1
				],
				"metallicFactor":0,
				"roughnessFactor":0.6800000071525574
			}
		},
		{
			"name":"lab_orange",
			"pbrMetallicRoughness":{
				"baseColorFactor":[
					0.949999988079071,
					0.30000001192092896,
					0.054999999701976776,
					1
				],
				"metallicFactor":0,
				"roughnessFactor":0.6800000071525574
			}
		}
	],
	"meshes":[
		{
			"name":"status_face_mesh",
			"primitives":[
				{
					"attributes":{
						"POSITION":0,
						"NORMAL":1
					},
					"indices":2,
					"material":0
				}
			]
		},
		{
			"name":"status_housing_mesh",
			"primitives":[
				{
					"attributes":{
						"POSITION":3,
						"NORMAL":4,
						"TEXCOORD_0":5,
						"TANGENT":6
					},
					"indices":7,
					"material":1
				}
			]
		},
		{
			"name":"status_indicator_lens_mesh",
			"primitives":[
				{
					"attributes":{
						"POSITION":8,
						"NORMAL":9,
						"TEXCOORD_0":10,
						"TANGENT":11
					},
					"indices":7,
					"material":2
				}
			]
		}
	],
	"accessors":[
		{
			"bufferView":0,
			"componentType":5126,
			"count":4,
			"max":[
				0.06700000166893005,
				0.04800000041723251,
				0
			],
			"min":[
				-0.06700000166893005,
				-0.04800000041723251,
				0
			],
			"type":"VEC3"
		},
		{
			"bufferView":1,
			"componentType":5126,
			"count":4,
			"type":"VEC3"
		},
		{
			"bufferView":2,
			"componentType":5123,
			"count":6,
			"type":"SCALAR"
		},
		{
			"bufferView":3,
			"componentType":5126,
			"count":96,
			"max":[
				0.07999999821186066,
				0.125,
				0.017500000074505806
			],
			"min":[
				-0.07999999821186066,
				-0.125,
				-0.017500000074505806
			],
			"type":"VEC3"
		},
		{
			"bufferView":4,
			"componentType":5126,
			"count":96,
			"type":"VEC3"
		},
		{
			"bufferView":5,
			"componentType":5126,
			"count":96,
			"type":"VEC2"
		},
		{
			"bufferView":6,
			"componentType":5126,
			"count":96,
			"type":"VEC4"
		},
		{
			"bufferView":7,
			"componentType":5123,
			"count":132,
			"type":"SCALAR"
		},
		{
			"bufferView":8,
			"componentType":5126,
			"count":96,
			"max":[
				0.04800000041723251,
				0.012500000186264515,
				0.0020000000949949026
			],
			"min":[
				-0.04800000041723251,
				-0.012500000186264515,
				-0.0020000000949949026
			],
			"type":"VEC3"
		},
		{
			"bufferView":9,
			"componentType":5126,
			"count":96,
			"type":"VEC3"
		},
		{
			"bufferView":10,
			"componentType":5126,
			"count":96,
			"type":"VEC2"
		},
		{
			"bufferView":11,
			"componentType":5126,
			"count":96,
			"type":"VEC4"
		}
	],
	"bufferViews":[
		{
			"buffer":0,
			"byteLength":48,
			"byteOffset":0,
			"target":34962
		},
		{
			"buffer":0,
			"byteLength":48,
			"byteOffset":48,
			"target":34962
		},
		{
			"buffer":0,
			"byteLength":12,
			"byteOffset":96,
			"target":34963
		},
		{
			"buffer":0,
			"byteLength":1152,
			"byteOffset":108,
			"target":34962
		},
		{
			"buffer":0,
			"byteLength":1152,
			"byteOffset":1260,
			"target":34962
		},
		{
			"buffer":0,
			"byteLength":768,
			"byteOffset":2412,
			"target":34962
		},
		{
			"buffer":0,
			"byteLength":1536,
			"byteOffset":3180,
			"target":34962
		},
		{
			"buffer":0,
			"byteLength":264,
			"byteOffset":4716,
			"target":34963
		},
		{
			"buffer":0,
			"byteLength":1152,
			"byteOffset":4980,
			"target":34962
		},
		{
			"buffer":0,
			"byteLength":1152,
			"byteOffset":6132,
			"target":34962
		},
		{
			"buffer":0,
			"byteLength":768,
			"byteOffset":7284,
			"target":34962
		},
		{
			"buffer":0,
			"byteLength":1536,
			"byteOffset":8052,
			"target":34962
		}
	],
	"buffers":[
		{
			"byteLength":9588,
			"uri":"door_status_panel-0b27d08dc190d83989122d7fd4b707b5.bin"
		}
	]
}
