{
	"asset":{
		"generator":"Khronos glTF Blender I/O v5.2.40",
		"version":"2.0"
	},
	"scene":0,
	"scenes":[
		{
			"name":"Scene",
			"nodes":[
				4
			]
		}
	],
	"nodes":[
		{
			"extras":{
				"usable_width_m":0.342,
				"usable_height_m":0.24,
				"blender_axes":"local +X right, +Z up, -Y outward; glTF +X right, +Y up, +Z outward"
			},
			"name":"anchor_text",
			"translation":[
				0,
				0.20000000298023224,
				0.01899999938905239
			]
		},
		{
			"mesh":0,
			"name":"instruction_accent",
			"translation":[
				0,
				0.34299999475479126,
				0.017999999225139618
			]
		},
		{
			"mesh":1,
			"name":"instruction_face",
			"translation":[
				0,
				0.20000000298023224,
				0.017999999225139618
			]
		},
		{
			"mesh":2,
			"name":"instruction_housing",
			"translation":[
				0,
				0.20000000298023224,
				0
			]
		},
		{
			"children":[
				0,
				1,
				2,
				3
			],
			"extras":{
				"asset_id":"instruction_panel",
				"front_blender":"-Y",
				"units":"meters",
				"origin_convention":"center of footprint on support plane"
			},
			"name":"instruction_panel"
		}
	],
	"materials":[
		{
			"name":"lab_teal",
			"pbrMetallicRoughness":{
				"baseColorFactor":[
					0.03500000014901161,
					0.25,
					0.25,
					1
				],
				"metallicFactor":0,
				"roughnessFactor":0.6800000071525574
			}
		},
		{
			"name":"lab_paper",
			"pbrMetallicRoughness":{
				"baseColorFactor":[
					0.8799999952316284,
					0.8500000238418579,
					0.7599999904632568,
					1
				],
				"metallicFactor":0,
				"roughnessFactor":0.6800000071525574
			}
		},
		{
			"name":"lab_warm",
			"pbrMetallicRoughness":{
				"baseColorFactor":[
					0.6399999856948853,
					0.6100000143051147,
					0.5400000214576721,
					1
				],
				"metallicFactor":0,
				"roughnessFactor":0.6800000071525574
			}
		}
	],
	"meshes":[
		{
			"name":"instruction_accent_mesh",
			"primitives":[
				{
					"attributes":{
						"POSITION":0,
						"NORMAL":1,
						"TEXCOORD_0":2,
						"TANGENT":3
					},
					"indices":4,
					"material":0
				}
			]
		},
		{
			"name":"instruction_face_mesh",
			"primitives":[
				{
					"attributes":{
						"POSITION":5,
						"NORMAL":6
					},
					"indices":7,
					"material":1
				}
			]
		},
		{
			"name":"instruction_housing_mesh",
			"primitives":[
				{
					"attributes":{
						"POSITION":8,
						"NORMAL":9,
						"TEXCOORD_0":10,
						"TANGENT":11
					},
					"indices":12,
					"material":2
				}
			]
		}
	],
	"accessors":[
		{
			"bufferView":0,
			"componentType":5126,
			"count":24,
			"max":[
				0.1599999964237213,
				0.0035000001080334187,
				0.0005000000237487257
			],
			"min":[
				-0.1599999964237213,
				-0.0035000001080334187,
				-0.0005000000237487257
			],
			"type":"VEC3"
		},
		{
			"bufferView":1,
			"componentType":5126,
			"count":24,
			"type":"VEC3"
		},
		{
			"bufferView":2,
			"componentType":5126,
			"count":24,
			"type":"VEC2"
		},
		{
			"bufferView":3,
			"componentType":5126,
			"count":24,
			"type":"VEC4"
		},
		{
			"bufferView":4,
			"componentType":5123,
			"count":36,
			"type":"SCALAR"
		},
		{
			"bufferView":5,
			"componentType":5126,
			"count":4,
			"max":[
				0.18299999833106995,
				0.13199999928474426,
				0
			],
			"min":[
				-0.18299999833106995,
				-0.13199999928474426,
				0
			],
			"type":"VEC3"
		},
		{
			"bufferView":6,
			"componentType":5126,
			"count":4,
			"type":"VEC3"
		},
		{
			"bufferView":7,
			"componentType":5123,
			"count":6,
			"type":"SCALAR"
		},
		{
			"bufferView":8,
			"componentType":5126,
			"count":288,
			"max":[
				0.20000000298023224,
				0.15000000596046448,
				0.06499999761581421
			],
			"min":[
				-0.20000000298023224,
				-0.20000000298023224,
				-0.06499999761581421
			],
			"type":"VEC3"
		},
		{
			"bufferView":9,
			"componentType":5126,
			"count":288,
			"type":"VEC3"
		},
		{
			"bufferView":10,
			"componentType":5126,
			"count":288,
			"type":"VEC2"
		},
		{
			"bufferView":11,
			"componentType":5126,
			"count":288,
			"type":"VEC4"
		},
		{
			"bufferView":12,
			"componentType":5123,
			"count":396,
			"type":"SCALAR"
		}
	],
	"bufferViews":[
		{
			"buffer":0,
			"byteLength":288,
			"byteOffset":0,
			"target":34962
		},
		{
			"buffer":0,
			"byteLength":288,
			"byteOffset":288,
			"target":34962
		},
		{
			"buffer":0,
			"byteLength":192,
			"byteOffset":576,
			"target":34962
		},
		{
			"buffer":0,
			"byteLength":384,
			"byteOffset":768,
			"target":34962
		},
		{
			"buffer":0,
			"byteLength":72,
			"byteOffset":1152,
			"target":34963
		},
		{
			"buffer":0,
			"byteLength":48,
			"byteOffset":1224,
			"target":34962
		},
		{
			"buffer":0,
			"byteLength":48,
			"byteOffset":1272,
			"target":34962
		},
		{
			"buffer":0,
			"byteLength":12,
			"byteOffset":1320,
			"target":34963
		},
		{
			"buffer":0,
			"byteLength":3456,
			"byteOffset":1332,
			"target":34962
		},
		{
			"buffer":0,
			"byteLength":3456,
			"byteOffset":4788,
			"target":34962
		},
		{
			"buffer":0,
			"byteLength":2304,
			"byteOffset":8244,
			"target":34962
		},
		{
			"buffer":0,
			"byteLength":4608,
			"byteOffset":10548,
			"target":34962
		},
		{
			"buffer":0,
			"byteLength":792,
			"byteOffset":15156,
			"target":34963
		}
	],
	"buffers":[
		{
			"byteLength":15948,
			"uri":"instruction_panel-6a6891aa8fad9d14e59339cfb8d8d63a.bin"
		}
	]
}
