{
	"asset":{
		"generator":"Khronos glTF Blender I/O v5.2.40",
		"version":"2.0"
	},
	"scene":0,
	"scenes":[
		{
			"name":"Scene",
			"nodes":[
				4
			]
		}
	],
	"nodes":[
		{
			"extras":{
				"usable_width_m":0.27,
				"usable_height_m":0.062,
				"blender_axes":"local +X right, +Z up, -Y outward; glTF +X right, +Y up, +Z outward"
			},
			"name":"anchor_text",
			"translation":[
				0,
				0.05000000074505806,
				0.013799999840557575
			]
		},
		{
			"mesh":0,
			"name":"nameplate_accent",
			"translation":[
				-0.15000000596046448,
				0.05000000074505806,
				0.012799999676644802
			]
		},
		{
			"mesh":1,
			"name":"nameplate_face",
			"translation":[
				0,
				0.05000000074505806,
				0.012799999676644802
			]
		},
		{
			"mesh":2,
			"name":"nameplate_housing",
			"translation":[
				0,
				0.05000000074505806,
				0
			]
		},
		{
			"children":[
				0,
				1,
				2,
				3
			],
			"extras":{
				"asset_id":"machine_nameplate",
				"front_blender":"-Y",
				"units":"meters",
				"origin_convention":"center of footprint on support plane"
			},
			"name":"machine_nameplate"
		}
	],
	"materials":[
		{
			"name":"lab_teal",
			"pbrMetallicRoughness":{
				"baseColorFactor":[
					0.03500000014901161,
					0.25,
					0.25,
					1
				],
				"metallicFactor":0,
				"roughnessFactor":0.6800000071525574
			}
		},
		{
			"name":"lab_dark",
			"pbrMetallicRoughness":{
				"baseColorFactor":[
					0.024000000208616257,
					0.03200000151991844,
					0.03700000047683716,
					1
				],
				"metallicFactor":0,
				"roughnessFactor":0.6800000071525574
			}
		},
		{
			"name":"lab_warm",
			"pbrMetallicRoughness":{
				"baseColorFactor":[
					0.6399999856948853,
					0.6100000143051147,
					0.5400000214576721,
					1
				],
				"metallicFactor":0,
				"roughnessFactor":0.6800000071525574
			}
		}
	],
	"meshes":[
		{
			"name":"nameplate_accent_mesh",
			"primitives":[
				{
					"attributes":{
						"POSITION":0,
						"NORMAL":1,
						"TEXCOORD_0":2,
						"TANGENT":3
					},
					"indices":4,
					"material":0
				}
			]
		},
		{
			"name":"nameplate_face_mesh",
			"primitives":[
				{
					"attributes":{
						"POSITION":5,
						"NORMAL":6
					},
					"indices":7,
					"material":1
				}
			]
		},
		{
			"name":"nameplate_housing_mesh",
			"primitives":[
				{
					"attributes":{
						"POSITION":8,
						"NORMAL":9,
						"TEXCOORD_0":10,
						"TANGENT":11
					},
					"indices":12,
					"material":2
				}
			]
		}
	],
	"accessors":[
		{
			"bufferView":0,
			"componentType":5126,
			"count":24,
			"max":[
				0.0024999999441206455,
				0.029999999329447746,
				0.0005000000237487257
			],
			"min":[
				-0.0024999999441206455,
				-0.029999999329447746,
				-0.0005000000237487257
			],
			"type":"VEC3"
		},
		{
			"bufferView":1,
			"componentType":5126,
			"count":24,
			"type":"VEC3"
		},
		{
			"bufferView":2,
			"componentType":5126,
			"count":24,
			"type":"VEC2"
		},
		{
			"bufferView":3,
			"componentType":5126,
			"count":24,
			"type":"VEC4"
		},
		{
			"bufferView":4,
			"componentType":5123,
			"count":36,
			"type":"SCALAR"
		},
		{
			"bufferView":5,
			"componentType":5126,
			"count":4,
			"max":[
				0.14300000667572021,
				0.03700000047683716,
				0
			],
			"min":[
				-0.14300000667572021,
				-0.03700000047683716,
				0
			],
			"type":"VEC3"
		},
		{
			"bufferView":6,
			"componentType":5126,
			"count":4,
			"type":"VEC3"
		},
		{
			"bufferView":7,
			"componentType":5123,
			"count":6,
			"type":"SCALAR"
		},
		{
			"bufferView":8,
			"componentType":5126,
			"count":96,
			"max":[
				0.1599999964237213,
				0.05000000074505806,
				0.012500000186264515
			],
			"min":[
				-0.1599999964237213,
				-0.05000000074505806,
				-0.012500000186264515
			],
			"type":"VEC3"
		},
		{
			"bufferView":9,
			"componentType":5126,
			"count":96,
			"type":"VEC3"
		},
		{
			"bufferView":10,
			"componentType":5126,
			"count":96,
			"type":"VEC2"
		},
		{
			"bufferView":11,
			"componentType":5126,
			"count":96,
			"type":"VEC4"
		},
		{
			"bufferView":12,
			"componentType":5123,
			"count":132,
			"type":"SCALAR"
		}
	],
	"bufferViews":[
		{
			"buffer":0,
			"byteLength":288,
			"byteOffset":0,
			"target":34962
		},
		{
			"buffer":0,
			"byteLength":288,
			"byteOffset":288,
			"target":34962
		},
		{
			"buffer":0,
			"byteLength":192,
			"byteOffset":576,
			"target":34962
		},
		{
			"buffer":0,
			"byteLength":384,
			"byteOffset":768,
			"target":34962
		},
		{
			"buffer":0,
			"byteLength":72,
			"byteOffset":1152,
			"target":34963
		},
		{
			"buffer":0,
			"byteLength":48,
			"byteOffset":1224,
			"target":34962
		},
		{
			"buffer":0,
			"byteLength":48,
			"byteOffset":1272,
			"target":34962
		},
		{
			"buffer":0,
			"byteLength":12,
			"byteOffset":1320,
			"target":34963
		},
		{
			"buffer":0,
			"byteLength":1152,
			"byteOffset":1332,
			"target":34962
		},
		{
			"buffer":0,
			"byteLength":1152,
			"byteOffset":2484,
			"target":34962
		},
		{
			"buffer":0,
			"byteLength":768,
			"byteOffset":3636,
			"target":34962
		},
		{
			"buffer":0,
			"byteLength":1536,
			"byteOffset":4404,
			"target":34962
		},
		{
			"buffer":0,
			"byteLength":264,
			"byteOffset":5940,
			"target":34963
		}
	],
	"buffers":[
		{
			"byteLength":6204,
			"uri":"machine_nameplate-c1473fd3a357d79b0bd0d5377df758ee.bin"
		}
	]
}
