{
	"asset":{
		"generator":"Khronos glTF Blender I/O v5.2.40",
		"version":"2.0"
	},
	"scene":0,
	"scenes":[
		{
			"name":"Scene",
			"nodes":[
				1
			]
		}
	],
	"nodes":[
		{
			"mesh":0,
			"name":"mug_ceramic",
			"translation":[
				-0.019999999552965164,
				0,
				0
			]
		},
		{
			"children":[
				0
			],
			"extras":{
				"asset_id":"mug",
				"front_blender":"-Y",
				"units":"meters",
				"origin_convention":"center of footprint on support plane"
			},
			"name":"mug"
		}
	],
	"materials":[
		{
			"name":"lab_warm",
			"pbrMetallicRoughness":{
				"baseColorFactor":[
					0.6399999856948853,
					0.6100000143051147,
					0.5400000214576721,
					1
				],
				"metallicFactor":0,
				"roughnessFactor":0.6800000071525574
			}
		}
	],
	"meshes":[
		{
			"name":"mug_ceramic_mesh",
			"primitives":[
				{
					"attributes":{
						"POSITION":0,
						"NORMAL":1,
						"TEXCOORD_0":2
					},
					"indices":3,
					"material":0
				}
			]
		}
	],
	"accessors":[
		{
			"bufferView":0,
			"componentType":5126,
			"count":384,
			"max":[
				0.07988297194242477,
				0.0949999988079071,
				0.03999999910593033
			],
			"min":[
				-0.03999999910593033,
				0,
				-0.03999999910593033
			],
			"type":"VEC3"
		},
		{
			"bufferView":1,
			"componentType":5126,
			"count":384,
			"type":"VEC3"
		},
		{
			"bufferView":2,
			"componentType":5126,
			"count":384,
			"type":"VEC2"
		},
		{
			"bufferView":3,
			"componentType":5123,
			"count":708,
			"type":"SCALAR"
		}
	],
	"bufferViews":[
		{
			"buffer":0,
			"byteLength":4608,
			"byteOffset":0,
			"target":34962
		},
		{
			"buffer":0,
			"byteLength":4608,
			"byteOffset":4608,
			"target":34962
		},
		{
			"buffer":0,
			"byteLength":3072,
			"byteOffset":9216,
			"target":34962
		},
		{
			"buffer":0,
			"byteLength":1416,
			"byteOffset":12288,
			"target":34963
		}
	],
	"buffers":[
		{
			"byteLength":13704,
			"uri":"mug-e7cb7c6cda2405c5237509726c89614b.bin"
		}
	]
}
