{
	"asset":{
		"generator":"Khronos glTF Blender I/O v5.2.40",
		"version":"2.0"
	},
	"scene":0,
	"scenes":[
		{
			"name":"Scene",
			"nodes":[
				4
			]
		}
	],
	"nodes":[
		{
			"name":"anchor_mount"
		},
		{
			"mesh":0,
			"name":"plaque_face",
			"translation":[
				0,
				0,
				0.025499999523162842
			]
		},
		{
			"mesh":1,
			"name":"plaque_housing",
			"translation":[
				0,
				0,
				0.012500000186264515
			]
		},
		{
			"mesh":2,
			"name":"supplied_logo_face",
			"translation":[
				0,
				0,
				0.025750000029802322
			]
		},
		{
			"children":[
				0,
				1,
				2,
				3
			],
			"extras":{
				"asset_id":"murgildu_plaque",
				"front_blender":"-Y",
				"units":"meters",
				"origin_convention":"center of rear mounting plane (Y=0)"
			},
			"name":"murgildu_plaque"
		}
	],
	"materials":[
		{
			"name":"lab_paper",
			"pbrMetallicRoughness":{
				"baseColorFactor":[
					0.8799999952316284,
					0.8500000238418579,
					0.7599999904632568,
					1
				],
				"metallicFactor":0,
				"roughnessFactor":0.6800000071525574
			}
		},
		{
			"name":"lab_warm",
			"pbrMetallicRoughness":{
				"baseColorFactor":[
					0.6399999856948853,
					0.6100000143051147,
					0.5400000214576721,
					1
				],
				"metallicFactor":0,
				"roughnessFactor":0.6800000071525574
			}
		},
		{
			"name":"supplied_murgildu_logo_print",
			"pbrMetallicRoughness":{
				"baseColorTexture":{
					"index":0
				},
				"metallicFactor":0,
				"roughnessFactor":0.6800000071525574
			}
		}
	],
	"meshes":[
		{
			"name":"plaque_face_mesh",
			"primitives":[
				{
					"attributes":{
						"POSITION":0,
						"NORMAL":1
					},
					"indices":2,
					"material":0
				}
			]
		},
		{
			"name":"plaque_housing_mesh",
			"primitives":[
				{
					"attributes":{
						"POSITION":3,
						"NORMAL":4,
						"TEXCOORD_0":5,
						"TANGENT":6
					},
					"indices":7,
					"material":1
				}
			]
		},
		{
			"name":"supplied_logo_face_mesh",
			"primitives":[
				{
					"attributes":{
						"POSITION":8,
						"NORMAL":9,
						"TEXCOORD_0":10,
						"TANGENT":11
					},
					"indices":2,
					"material":2
				}
			]
		}
	],
	"textures":[
		{
			"sampler":0,
			"source":0
		}
	],
	"images":[
		{
			"mimeType":"image/png",
			"name":"murgildu_logo_from_supplied_mesh.png",
			"uri":"../../Prefabs/textures/murgildu_logo_from_supplied_mesh.png"
		}
	],
	"accessors":[
		{
			"bufferView":0,
			"componentType":5126,
			"count":4,
			"max":[
				0.18799999356269836,
				0.08799999952316284,
				0
			],
			"min":[
				-0.18799999356269836,
				-0.08799999952316284,
				0
			],
			"type":"VEC3"
		},
		{
			"bufferView":1,
			"componentType":5126,
			"count":4,
			"type":"VEC3"
		},
		{
			"bufferView":2,
			"componentType":5123,
			"count":6,
			"type":"SCALAR"
		},
		{
			"bufferView":3,
			"componentType":5126,
			"count":96,
			"max":[
				0.20000000298023224,
				0.10000000149011612,
				0.012500000186264515
			],
			"min":[
				-0.20000000298023224,
				-0.10000000149011612,
				-0.012500000186264515
			],
			"type":"VEC3"
		},
		{
			"bufferView":4,
			"componentType":5126,
			"count":96,
			"type":"VEC3"
		},
		{
			"bufferView":5,
			"componentType":5126,
			"count":96,
			"type":"VEC2"
		},
		{
			"bufferView":6,
			"componentType":5126,
			"count":96,
			"type":"VEC4"
		},
		{
			"bufferView":7,
			"componentType":5123,
			"count":132,
			"type":"SCALAR"
		},
		{
			"bufferView":8,
			"componentType":5126,
			"count":4,
			"max":[
				0.08500000089406967,
				0.08500000089406967,
				0
			],
			"min":[
				-0.08500000089406967,
				-0.08500000089406967,
				0
			],
			"type":"VEC3"
		},
		{
			"bufferView":9,
			"componentType":5126,
			"count":4,
			"type":"VEC3"
		},
		{
			"bufferView":10,
			"componentType":5126,
			"count":4,
			"type":"VEC2"
		},
		{
			"bufferView":11,
			"componentType":5126,
			"count":4,
			"type":"VEC4"
		}
	],
	"bufferViews":[
		{
			"buffer":0,
			"byteLength":48,
			"byteOffset":0,
			"target":34962
		},
		{
			"buffer":0,
			"byteLength":48,
			"byteOffset":48,
			"target":34962
		},
		{
			"buffer":0,
			"byteLength":12,
			"byteOffset":96,
			"target":34963
		},
		{
			"buffer":0,
			"byteLength":1152,
			"byteOffset":108,
			"target":34962
		},
		{
			"buffer":0,
			"byteLength":1152,
			"byteOffset":1260,
			"target":34962
		},
		{
			"buffer":0,
			"byteLength":768,
			"byteOffset":2412,
			"target":34962
		},
		{
			"buffer":0,
			"byteLength":1536,
			"byteOffset":3180,
			"target":34962
		},
		{
			"buffer":0,
			"byteLength":264,
			"byteOffset":4716,
			"target":34963
		},
		{
			"buffer":0,
			"byteLength":48,
			"byteOffset":4980,
			"target":34962
		},
		{
			"buffer":0,
			"byteLength":48,
			"byteOffset":5028,
			"target":34962
		},
		{
			"buffer":0,
			"byteLength":32,
			"byteOffset":5076,
			"target":34962
		},
		{
			"buffer":0,
			"byteLength":64,
			"byteOffset":5108,
			"target":34962
		}
	],
	"samplers":[
		{
			"magFilter":9729,
			"minFilter":9987
		}
	],
	"buffers":[
		{
			"byteLength":5172,
			"uri":"murgildu_plaque-6f0272edbc1ea5f3b0e7c4b2fde69276.bin"
		}
	]
}
