{
	"asset":{
		"generator":"Khronos glTF Blender I/O v5.2.40",
		"version":"2.0"
	},
	"scene":0,
	"scenes":[
		{
			"extras":{
				"ps_scene_data":{
					"color_history_palette":{},
					"last_selected_object":null,
					"last_selected_material":{
						"name":"Material.001",
						"type":"Material"
					}
				},
				"vr_landmarks":[
					{
						"type":0,
						"base_scale":1.0
					}
				]
			},
			"name":"Scene",
			"nodes":[
				0
			]
		}
	],
	"nodes":[
		{
			"mesh":0,
			"name":"murgilduLogo_Optimized"
		}
	],
	"materials":[
		{
			"name":"murgilduLogo_Black",
			"pbrMetallicRoughness":{
				"baseColorFactor":[
					0,
					0,
					0,
					1
				],
				"metallicFactor":0,
				"roughnessFactor":0.4000000059604645
			}
		}
	],
	"meshes":[
		{
			"name":"murgilduLogo_Optimized_Mesh",
			"primitives":[
				{
					"attributes":{
						"POSITION":0,
						"NORMAL":1,
						"TEXCOORD_0":2,
						"TANGENT":3
					},
					"indices":4,
					"material":0
				}
			]
		}
	],
	"accessors":[
		{
			"bufferView":0,
			"componentType":5126,
			"count":7561,
			"max":[
				0.5270872712135315,
				0.02292407490313053,
				0.0025009976234287024
			],
			"min":[
				-0.002422245917841792,
				-0.02292407490313053,
				-0.5505307912826538
			],
			"type":"VEC3"
		},
		{
			"bufferView":1,
			"componentType":5126,
			"count":7561,
			"type":"VEC3"
		},
		{
			"bufferView":2,
			"componentType":5126,
			"count":7561,
			"type":"VEC2"
		},
		{
			"bufferView":3,
			"componentType":5126,
			"count":7561,
			"type":"VEC4"
		},
		{
			"bufferView":4,
			"componentType":5123,
			"count":34482,
			"type":"SCALAR"
		}
	],
	"bufferViews":[
		{
			"buffer":0,
			"byteLength":90732,
			"byteOffset":0,
			"target":34962
		},
		{
			"buffer":0,
			"byteLength":90732,
			"byteOffset":90732,
			"target":34962
		},
		{
			"buffer":0,
			"byteLength":60488,
			"byteOffset":181464,
			"target":34962
		},
		{
			"buffer":0,
			"byteLength":120976,
			"byteOffset":241952,
			"target":34962
		},
		{
			"buffer":0,
			"byteLength":68964,
			"byteOffset":362928,
			"target":34963
		}
	],
	"buffers":[
		{
			"byteLength":431892,
			"uri":"murgilduLogo-7bc58c9adafccf809a64452d03b5582b.bin"
		}
	]
}
