{
	"asset":{
		"generator":"Khronos glTF Blender I/O v5.2.40",
		"version":"2.0"
	},
	"scene":0,
	"scenes":[
		{
			"name":"Scene",
			"nodes":[
				2
			]
		}
	],
	"nodes":[
		{
			"mesh":0,
			"name":"pencil_cup"
		},
		{
			"mesh":1,
			"name":"pencils",
			"translation":[
				-0.014999999664723873,
				0.07100000232458115,
				0
			]
		},
		{
			"children":[
				0,
				1
			],
			"extras":{
				"asset_id":"pencil_holder",
				"front_blender":"-Y",
				"units":"meters",
				"origin_convention":"center of footprint on support plane"
			},
			"name":"pencil_holder"
		}
	],
	"materials":[
		{
			"name":"lab_dark",
			"pbrMetallicRoughness":{
				"baseColorFactor":[
					0.024000000208616257,
					0.03200000151991844,
					0.03700000047683716,
					1
				],
				"metallicFactor":0,
				"roughnessFactor":0.6800000071525574
			}
		},
		{
			"name":"lab_warm",
			"pbrMetallicRoughness":{
				"baseColorFactor":[
					0.6399999856948853,
					0.6100000143051147,
					0.5400000214576721,
					1
				],
				"metallicFactor":0,
				"roughnessFactor":0.6800000071525574
			}
		}
	],
	"meshes":[
		{
			"name":"pencil_cup_mesh",
			"primitives":[
				{
					"attributes":{
						"POSITION":0,
						"NORMAL":1
					},
					"indices":2,
					"material":0
				}
			]
		},
		{
			"name":"pencils_mesh",
			"primitives":[
				{
					"attributes":{
						"POSITION":3,
						"NORMAL":4,
						"TEXCOORD_0":5
					},
					"indices":6,
					"material":1
				},
				{
					"attributes":{
						"POSITION":7,
						"NORMAL":8,
						"TEXCOORD_0":9
					},
					"indices":10,
					"material":0
				}
			]
		}
	],
	"accessors":[
		{
			"bufferView":0,
			"componentType":5126,
			"count":144,
			"max":[
				0.039000000804662704,
				0.09000000357627869,
				0.039000000804662704
			],
			"min":[
				-0.039000000804662704,
				0,
				-0.039000000804662704
			],
			"type":"VEC3"
		},
		{
			"bufferView":1,
			"componentType":5126,
			"count":144,
			"type":"VEC3"
		},
		{
			"bufferView":2,
			"componentType":5123,
			"count":276,
			"type":"SCALAR"
		},
		{
			"bufferView":3,
			"componentType":5126,
			"count":108,
			"max":[
				0.030117690563201904,
				0.07999999821186066,
				0.01759999990463257
			],
			"min":[
				-0.00311769125983119,
				-0.062000006437301636,
				-0.015599999576807022
			],
			"type":"VEC3"
		},
		{
			"bufferView":4,
			"componentType":5126,
			"count":108,
			"type":"VEC3"
		},
		{
			"bufferView":5,
			"componentType":5126,
			"count":108,
			"type":"VEC2"
		},
		{
			"bufferView":6,
			"componentType":5123,
			"count":180,
			"type":"SCALAR"
		},
		{
			"bufferView":7,
			"componentType":5126,
			"count":72,
			"max":[
				0.030117690563201904,
				0.08899999409914017,
				0.01759999990463257
			],
			"min":[
				-0.00311769125983119,
				0.053999997675418854,
				-0.015599999576807022
			],
			"type":"VEC3"
		},
		{
			"bufferView":8,
			"componentType":5126,
			"count":72,
			"type":"VEC3"
		},
		{
			"bufferView":9,
			"componentType":5126,
			"count":72,
			"type":"VEC2"
		},
		{
			"bufferView":10,
			"componentType":5123,
			"count":90,
			"type":"SCALAR"
		}
	],
	"bufferViews":[
		{
			"buffer":0,
			"byteLength":1728,
			"byteOffset":0,
			"target":34962
		},
		{
			"buffer":0,
			"byteLength":1728,
			"byteOffset":1728,
			"target":34962
		},
		{
			"buffer":0,
			"byteLength":552,
			"byteOffset":3456,
			"target":34963
		},
		{
			"buffer":0,
			"byteLength":1296,
			"byteOffset":4008,
			"target":34962
		},
		{
			"buffer":0,
			"byteLength":1296,
			"byteOffset":5304,
			"target":34962
		},
		{
			"buffer":0,
			"byteLength":864,
			"byteOffset":6600,
			"target":34962
		},
		{
			"buffer":0,
			"byteLength":360,
			"byteOffset":7464,
			"target":34963
		},
		{
			"buffer":0,
			"byteLength":864,
			"byteOffset":7824,
			"target":34962
		},
		{
			"buffer":0,
			"byteLength":864,
			"byteOffset":8688,
			"target":34962
		},
		{
			"buffer":0,
			"byteLength":576,
			"byteOffset":9552,
			"target":34962
		},
		{
			"buffer":0,
			"byteLength":180,
			"byteOffset":10128,
			"target":34963
		}
	],
	"buffers":[
		{
			"byteLength":10308,
			"uri":"pencil_holder-a27fd122ce0736b1bd7ad905d36fd52b.bin"
		}
	]
}
