{
	"asset":{
		"generator":"Khronos glTF Blender I/O v5.2.40",
		"version":"2.0"
	},
	"scene":0,
	"scenes":[
		{
			"name":"Scene",
			"nodes":[
				4
			]
		}
	],
	"nodes":[
		{
			"extras":{
				"usable_width_m":0.19,
				"usable_height_m":0.247,
				"blender_axes":"local +X right, +Z up, -Y outward; glTF +X right, +Y up, +Z outward"
			},
			"name":"anchor_text",
			"translation":[
				0,
				0.15600000321865082,
				0.009999999776482582
			]
		},
		{
			"mesh":0,
			"name":"clipboard_board",
			"translation":[
				0,
				0.16500000655651093,
				0
			]
		},
		{
			"mesh":1,
			"name":"clipboard_clip",
			"translation":[
				0,
				0.3089999854564667,
				0.013000000268220901
			]
		},
		{
			"mesh":2,
			"name":"clipboard_paper",
			"translation":[
				0,
				0.15600000321865082,
				0.008999999612569809
			]
		},
		{
			"children":[
				0,
				1,
				2,
				3
			],
			"extras":{
				"asset_id":"professor_clipboard",
				"front_blender":"-Y",
				"units":"meters",
				"origin_convention":"center of footprint on support plane"
			},
			"name":"professor_clipboard"
		}
	],
	"materials":[
		{
			"name":"lab_teal",
			"pbrMetallicRoughness":{
				"baseColorFactor":[
					0.03500000014901161,
					0.25,
					0.25,
					1
				],
				"metallicFactor":0,
				"roughnessFactor":0.6800000071525574
			}
		},
		{
			"name":"lab_dark",
			"pbrMetallicRoughness":{
				"baseColorFactor":[
					0.024000000208616257,
					0.03200000151991844,
					0.03700000047683716,
					1
				],
				"metallicFactor":0,
				"roughnessFactor":0.6800000071525574
			}
		},
		{
			"name":"lab_paper",
			"pbrMetallicRoughness":{
				"baseColorFactor":[
					0.8799999952316284,
					0.8500000238418579,
					0.7599999904632568,
					1
				],
				"metallicFactor":0,
				"roughnessFactor":0.6800000071525574
			}
		}
	],
	"meshes":[
		{
			"name":"clipboard_board_mesh",
			"primitives":[
				{
					"attributes":{
						"POSITION":0,
						"NORMAL":1,
						"TEXCOORD_0":2,
						"TANGENT":3
					},
					"indices":4,
					"material":0
				}
			]
		},
		{
			"name":"clipboard_clip_mesh",
			"primitives":[
				{
					"attributes":{
						"POSITION":5,
						"NORMAL":6,
						"TEXCOORD_0":7,
						"TANGENT":8
					},
					"indices":9,
					"material":1
				}
			]
		},
		{
			"name":"clipboard_paper_mesh",
			"primitives":[
				{
					"attributes":{
						"POSITION":10,
						"NORMAL":11
					},
					"indices":12,
					"material":2
				}
			]
		}
	],
	"accessors":[
		{
			"bufferView":0,
			"componentType":5126,
			"count":96,
			"max":[
				0.11999999731779099,
				0.16500000655651093,
				0.008500000461935997
			],
			"min":[
				-0.11999999731779099,
				-0.16500000655651093,
				-0.008500000461935997
			],
			"type":"VEC3"
		},
		{
			"bufferView":1,
			"componentType":5126,
			"count":96,
			"type":"VEC3"
		},
		{
			"bufferView":2,
			"componentType":5126,
			"count":96,
			"type":"VEC2"
		},
		{
			"bufferView":3,
			"componentType":5126,
			"count":96,
			"type":"VEC4"
		},
		{
			"bufferView":4,
			"componentType":5123,
			"count":132,
			"type":"SCALAR"
		},
		{
			"bufferView":5,
			"componentType":5126,
			"count":192,
			"max":[
				0.0430000014603138,
				0.012000000104308128,
				0.004000000189989805
			],
			"min":[
				-0.0430000014603138,
				-0.018999986350536346,
				-0.004000000189989805
			],
			"type":"VEC3"
		},
		{
			"bufferView":6,
			"componentType":5126,
			"count":192,
			"type":"VEC3"
		},
		{
			"bufferView":7,
			"componentType":5126,
			"count":192,
			"type":"VEC2"
		},
		{
			"bufferView":8,
			"componentType":5126,
			"count":192,
			"type":"VEC4"
		},
		{
			"bufferView":9,
			"componentType":5123,
			"count":264,
			"type":"SCALAR"
		},
		{
			"bufferView":10,
			"componentType":5126,
			"count":4,
			"max":[
				0.10499999672174454,
				0.13750000298023224,
				0
			],
			"min":[
				-0.10499999672174454,
				-0.13750000298023224,
				0
			],
			"type":"VEC3"
		},
		{
			"bufferView":11,
			"componentType":5126,
			"count":4,
			"type":"VEC3"
		},
		{
			"bufferView":12,
			"componentType":5123,
			"count":6,
			"type":"SCALAR"
		}
	],
	"bufferViews":[
		{
			"buffer":0,
			"byteLength":1152,
			"byteOffset":0,
			"target":34962
		},
		{
			"buffer":0,
			"byteLength":1152,
			"byteOffset":1152,
			"target":34962
		},
		{
			"buffer":0,
			"byteLength":768,
			"byteOffset":2304,
			"target":34962
		},
		{
			"buffer":0,
			"byteLength":1536,
			"byteOffset":3072,
			"target":34962
		},
		{
			"buffer":0,
			"byteLength":264,
			"byteOffset":4608,
			"target":34963
		},
		{
			"buffer":0,
			"byteLength":2304,
			"byteOffset":4872,
			"target":34962
		},
		{
			"buffer":0,
			"byteLength":2304,
			"byteOffset":7176,
			"target":34962
		},
		{
			"buffer":0,
			"byteLength":1536,
			"byteOffset":9480,
			"target":34962
		},
		{
			"buffer":0,
			"byteLength":3072,
			"byteOffset":11016,
			"target":34962
		},
		{
			"buffer":0,
			"byteLength":528,
			"byteOffset":14088,
			"target":34963
		},
		{
			"buffer":0,
			"byteLength":48,
			"byteOffset":14616,
			"target":34962
		},
		{
			"buffer":0,
			"byteLength":48,
			"byteOffset":14664,
			"target":34962
		},
		{
			"buffer":0,
			"byteLength":12,
			"byteOffset":14712,
			"target":34963
		}
	],
	"buffers":[
		{
			"byteLength":14724,
			"uri":"professor_clipboard-b3a4eb2f2137b52899c1b80fcb00a430.bin"
		}
	]
}
