{
	"asset":{
		"generator":"Khronos glTF Blender I/O v5.2.40",
		"version":"2.0"
	},
	"scene":0,
	"scenes":[
		{
			"name":"Scene",
			"nodes":[
				5
			]
		}
	],
	"nodes":[
		{
			"name":"anchor_mount"
		},
		{
			"extras":{
				"usable_width_m":1.46,
				"usable_height_m":0.79,
				"blender_axes":"local +X right, +Z up, -Y outward; glTF +X right, +Y up, +Z outward"
			},
			"name":"anchor_text",
			"translation":[
				0,
				0,
				0.054999999701976776
			]
		},
		{
			"mesh":0,
			"name":"blackboard_face",
			"translation":[
				0,
				0,
				0.05299999937415123
			]
		},
		{
			"mesh":1,
			"name":"blackboard_frame",
			"translation":[
				-0.7875000238418579,
				0,
				0.027499999850988388
			]
		},
		{
			"mesh":2,
			"name":"chalk_ledge",
			"translation":[
				0,
				-0.4440000057220459,
				0.06300000101327896
			]
		},
		{
			"children":[
				0,
				1,
				2,
				3,
				4
			],
			"extras":{
				"asset_id":"rsa_blackboard",
				"front_blender":"-Y",
				"units":"meters",
				"origin_convention":"center of rear mounting plane (Y=0)"
			},
			"name":"rsa_blackboard"
		}
	],
	"materials":[
		{
			"name":"lab_dark",
			"pbrMetallicRoughness":{
				"baseColorFactor":[
					0.024000000208616257,
					0.03200000151991844,
					0.03700000047683716,
					1
				],
				"metallicFactor":0,
				"roughnessFactor":0.6800000071525574
			}
		},
		{
			"name":"lab_warm",
			"pbrMetallicRoughness":{
				"baseColorFactor":[
					0.6399999856948853,
					0.6100000143051147,
					0.5400000214576721,
					1
				],
				"metallicFactor":0,
				"roughnessFactor":0.6800000071525574
			}
		},
		{
			"name":"lab_teal",
			"pbrMetallicRoughness":{
				"baseColorFactor":[
					0.03500000014901161,
					0.25,
					0.25,
					1
				],
				"metallicFactor":0,
				"roughnessFactor":0.6800000071525574
			}
		}
	],
	"meshes":[
		{
			"name":"blackboard_face_mesh",
			"primitives":[
				{
					"attributes":{
						"POSITION":0,
						"NORMAL":1
					},
					"indices":2,
					"material":0
				}
			]
		},
		{
			"name":"blackboard_frame_mesh",
			"primitives":[
				{
					"attributes":{
						"POSITION":3,
						"NORMAL":4,
						"TEXCOORD_0":5,
						"TANGENT":6
					},
					"indices":7,
					"material":1
				}
			]
		},
		{
			"name":"chalk_ledge_mesh",
			"primitives":[
				{
					"attributes":{
						"POSITION":8,
						"NORMAL":9,
						"TEXCOORD_0":10,
						"TANGENT":11
					},
					"indices":12,
					"material":2
				}
			]
		}
	],
	"accessors":[
		{
			"bufferView":0,
			"componentType":5126,
			"count":4,
			"max":[
				0.7749999761581421,
				0.44999998807907104,
				0
			],
			"min":[
				-0.7749999761581421,
				-0.44999998807907104,
				0
			],
			"type":"VEC3"
		},
		{
			"bufferView":1,
			"componentType":5126,
			"count":4,
			"type":"VEC3"
		},
		{
			"bufferView":2,
			"componentType":5123,
			"count":6,
			"type":"SCALAR"
		},
		{
			"bufferView":3,
			"componentType":5126,
			"count":480,
			"max":[
				1.5875000953674316,
				0.4749999940395355,
				0.027499999850988388
			],
			"min":[
				-0.012500000186264515,
				-0.4749999940395355,
				-0.027499999850988388
			],
			"type":"VEC3"
		},
		{
			"bufferView":4,
			"componentType":5126,
			"count":480,
			"type":"VEC3"
		},
		{
			"bufferView":5,
			"componentType":5126,
			"count":480,
			"type":"VEC2"
		},
		{
			"bufferView":6,
			"componentType":5126,
			"count":480,
			"type":"VEC4"
		},
		{
			"bufferView":7,
			"componentType":5123,
			"count":660,
			"type":"SCALAR"
		},
		{
			"bufferView":8,
			"componentType":5126,
			"count":96,
			"max":[
				0.7400000095367432,
				0.007000000216066837,
				0.04500000178813934
			],
			"min":[
				-0.7400000095367432,
				-0.007000000216066837,
				-0.04500000178813934
			],
			"type":"VEC3"
		},
		{
			"bufferView":9,
			"componentType":5126,
			"count":96,
			"type":"VEC3"
		},
		{
			"bufferView":10,
			"componentType":5126,
			"count":96,
			"type":"VEC2"
		},
		{
			"bufferView":11,
			"componentType":5126,
			"count":96,
			"type":"VEC4"
		},
		{
			"bufferView":12,
			"componentType":5123,
			"count":132,
			"type":"SCALAR"
		}
	],
	"bufferViews":[
		{
			"buffer":0,
			"byteLength":48,
			"byteOffset":0,
			"target":34962
		},
		{
			"buffer":0,
			"byteLength":48,
			"byteOffset":48,
			"target":34962
		},
		{
			"buffer":0,
			"byteLength":12,
			"byteOffset":96,
			"target":34963
		},
		{
			"buffer":0,
			"byteLength":5760,
			"byteOffset":108,
			"target":34962
		},
		{
			"buffer":0,
			"byteLength":5760,
			"byteOffset":5868,
			"target":34962
		},
		{
			"buffer":0,
			"byteLength":3840,
			"byteOffset":11628,
			"target":34962
		},
		{
			"buffer":0,
			"byteLength":7680,
			"byteOffset":15468,
			"target":34962
		},
		{
			"buffer":0,
			"byteLength":1320,
			"byteOffset":23148,
			"target":34963
		},
		{
			"buffer":0,
			"byteLength":1152,
			"byteOffset":24468,
			"target":34962
		},
		{
			"buffer":0,
			"byteLength":1152,
			"byteOffset":25620,
			"target":34962
		},
		{
			"buffer":0,
			"byteLength":768,
			"byteOffset":26772,
			"target":34962
		},
		{
			"buffer":0,
			"byteLength":1536,
			"byteOffset":27540,
			"target":34962
		},
		{
			"buffer":0,
			"byteLength":264,
			"byteOffset":29076,
			"target":34963
		}
	],
	"buffers":[
		{
			"byteLength":29340,
			"uri":"rsa_blackboard-e1e0c5700a447e51a6c700a3db64d4e2.bin"
		}
	]
}
