{
	"asset":{
		"generator":"Khronos glTF Blender I/O v5.2.40",
		"version":"2.0"
	},
	"scene":0,
	"scenes":[
		{
			"name":"Scene",
			"nodes":[
				6
			]
		}
	],
	"nodes":[
		{
			"name":"anchor_mount"
		},
		{
			"name":"anchor_usb_seated",
			"translation":[
				0,
				0.029200000688433647,
				0
			]
		},
		{
			"mesh":0,
			"name":"dock_accent_trim",
			"translation":[
				-0.05999999865889549,
				0.019999999552965164,
				0.004000000189989805
			]
		},
		{
			"mesh":1,
			"name":"dock_bed",
			"translation":[
				0,
				0.016499999910593033,
				0
			]
		},
		{
			"mesh":2,
			"name":"dock_housing",
			"translation":[
				0,
				0.007499999832361937,
				0
			]
		},
		{
			"mesh":3,
			"name":"dock_indicator_lens",
			"translation":[
				0,
				0.039000000804662704,
				-0.07460000365972519
			]
		},
		{
			"children":[
				0,
				1,
				2,
				3,
				4,
				5
			],
			"extras":{
				"asset_id":"usb_dock",
				"front_blender":"-Y",
				"units":"meters",
				"origin_convention":"center of footprint on support plane"
			},
			"name":"usb_dock"
		}
	],
	"materials":[
		{
			"name":"lab_orange",
			"pbrMetallicRoughness":{
				"baseColorFactor":[
					0.949999988079071,
					0.30000001192092896,
					0.054999999701976776,
					1
				],
				"metallicFactor":0,
				"roughnessFactor":0.6800000071525574
			}
		},
		{
			"name":"lab_dark",
			"pbrMetallicRoughness":{
				"baseColorFactor":[
					0.024000000208616257,
					0.03200000151991844,
					0.03700000047683716,
					1
				],
				"metallicFactor":0,
				"roughnessFactor":0.6800000071525574
			}
		},
		{
			"name":"lab_warm",
			"pbrMetallicRoughness":{
				"baseColorFactor":[
					0.6399999856948853,
					0.6100000143051147,
					0.5400000214576721,
					1
				],
				"metallicFactor":0,
				"roughnessFactor":0.6800000071525574
			}
		}
	],
	"meshes":[
		{
			"name":"dock_accent_trim_mesh",
			"primitives":[
				{
					"attributes":{
						"POSITION":0,
						"NORMAL":1,
						"TEXCOORD_0":2,
						"TANGENT":3
					},
					"indices":4,
					"material":0
				}
			]
		},
		{
			"name":"dock_bed_mesh",
			"primitives":[
				{
					"attributes":{
						"POSITION":5,
						"NORMAL":6,
						"TEXCOORD_0":7,
						"TANGENT":8
					},
					"indices":9,
					"material":1
				}
			]
		},
		{
			"name":"dock_housing_mesh",
			"primitives":[
				{
					"attributes":{
						"POSITION":10,
						"NORMAL":11,
						"TEXCOORD_0":12,
						"TANGENT":13
					},
					"indices":14,
					"material":2
				}
			]
		},
		{
			"name":"dock_indicator_lens_mesh",
			"primitives":[
				{
					"attributes":{
						"POSITION":15,
						"NORMAL":16,
						"TEXCOORD_0":17,
						"TANGENT":18
					},
					"indices":9,
					"material":0
				}
			]
		}
	],
	"accessors":[
		{
			"bufferView":0,
			"componentType":5126,
			"count":288,
			"max":[
				0.12349999696016312,
				0.001500000013038516,
				0.05999999865889549
			],
			"min":[
				-0.0035000001080334187,
				-0.001500000013038516,
				-0.06849999725818634
			],
			"type":"VEC3"
		},
		{
			"bufferView":1,
			"componentType":5126,
			"count":288,
			"type":"VEC3"
		},
		{
			"bufferView":2,
			"componentType":5126,
			"count":288,
			"type":"VEC2"
		},
		{
			"bufferView":3,
			"componentType":5126,
			"count":288,
			"type":"VEC4"
		},
		{
			"bufferView":4,
			"componentType":5123,
			"count":396,
			"type":"SCALAR"
		},
		{
			"bufferView":5,
			"componentType":5126,
			"count":96,
			"max":[
				0.07400000095367432,
				0.001500000013038516,
				0.07400000095367432
			],
			"min":[
				-0.07400000095367432,
				-0.001500000013038516,
				-0.07400000095367432
			],
			"type":"VEC3"
		},
		{
			"bufferView":6,
			"componentType":5126,
			"count":96,
			"type":"VEC3"
		},
		{
			"bufferView":7,
			"componentType":5126,
			"count":96,
			"type":"VEC2"
		},
		{
			"bufferView":8,
			"componentType":5126,
			"count":96,
			"type":"VEC4"
		},
		{
			"bufferView":9,
			"componentType":5123,
			"count":132,
			"type":"SCALAR"
		},
		{
			"bufferView":10,
			"componentType":5126,
			"count":384,
			"max":[
				0.09000000357627869,
				0.04749999940395355,
				0.09000000357627869
			],
			"min":[
				-0.09000000357627869,
				-0.007499999832361937,
				-0.09000000357627869
			],
			"type":"VEC3"
		},
		{
			"bufferView":11,
			"componentType":5126,
			"count":384,
			"type":"VEC3"
		},
		{
			"bufferView":12,
			"componentType":5126,
			"count":384,
			"type":"VEC2"
		},
		{
			"bufferView":13,
			"componentType":5126,
			"count":384,
			"type":"VEC4"
		},
		{
			"bufferView":14,
			"componentType":5123,
			"count":528,
			"type":"SCALAR"
		},
		{
			"bufferView":15,
			"componentType":5126,
			"count":96,
			"max":[
				0.020999999716877937,
				0.004000000189989805,
				0.0035000001080334187
			],
			"min":[
				-0.020999999716877937,
				-0.004000000189989805,
				-0.0035000001080334187
			],
			"type":"VEC3"
		},
		{
			"bufferView":16,
			"componentType":5126,
			"count":96,
			"type":"VEC3"
		},
		{
			"bufferView":17,
			"componentType":5126,
			"count":96,
			"type":"VEC2"
		},
		{
			"bufferView":18,
			"componentType":5126,
			"count":96,
			"type":"VEC4"
		}
	],
	"bufferViews":[
		{
			"buffer":0,
			"byteLength":3456,
			"byteOffset":0,
			"target":34962
		},
		{
			"buffer":0,
			"byteLength":3456,
			"byteOffset":3456,
			"target":34962
		},
		{
			"buffer":0,
			"byteLength":2304,
			"byteOffset":6912,
			"target":34962
		},
		{
			"buffer":0,
			"byteLength":4608,
			"byteOffset":9216,
			"target":34962
		},
		{
			"buffer":0,
			"byteLength":792,
			"byteOffset":13824,
			"target":34963
		},
		{
			"buffer":0,
			"byteLength":1152,
			"byteOffset":14616,
			"target":34962
		},
		{
			"buffer":0,
			"byteLength":1152,
			"byteOffset":15768,
			"target":34962
		},
		{
			"buffer":0,
			"byteLength":768,
			"byteOffset":16920,
			"target":34962
		},
		{
			"buffer":0,
			"byteLength":1536,
			"byteOffset":17688,
			"target":34962
		},
		{
			"buffer":0,
			"byteLength":264,
			"byteOffset":19224,
			"target":34963
		},
		{
			"buffer":0,
			"byteLength":4608,
			"byteOffset":19488,
			"target":34962
		},
		{
			"buffer":0,
			"byteLength":4608,
			"byteOffset":24096,
			"target":34962
		},
		{
			"buffer":0,
			"byteLength":3072,
			"byteOffset":28704,
			"target":34962
		},
		{
			"buffer":0,
			"byteLength":6144,
			"byteOffset":31776,
			"target":34962
		},
		{
			"buffer":0,
			"byteLength":1056,
			"byteOffset":37920,
			"target":34963
		},
		{
			"buffer":0,
			"byteLength":1152,
			"byteOffset":38976,
			"target":34962
		},
		{
			"buffer":0,
			"byteLength":1152,
			"byteOffset":40128,
			"target":34962
		},
		{
			"buffer":0,
			"byteLength":768,
			"byteOffset":41280,
			"target":34962
		},
		{
			"buffer":0,
			"byteLength":1536,
			"byteOffset":42048,
			"target":34962
		}
	],
	"buffers":[
		{
			"byteLength":43584,
			"uri":"usb_dock-ab59c999ae6b001c4feea51767611e2e.bin"
		}
	]
}
