{
	"asset":{
		"generator":"Khronos glTF Blender I/O v5.2.40",
		"version":"2.0"
	},
	"scene":0,
	"scenes":[
		{
			"name":"Scene",
			"nodes":[
				6
			]
		}
	],
	"nodes":[
		{
			"name":"anchor_connector",
			"translation":[
				0,
				0,
				-0.054999999701976776
			]
		},
		{
			"name":"anchor_grip",
			"translation":[
				0,
				0,
				0.019999999552965164
			]
		},
		{
			"mesh":0,
			"name":"usb_connector",
			"translation":[
				0,
				0,
				-0.04100000113248825
			]
		},
		{
			"mesh":1,
			"name":"usb_grip",
			"translation":[
				0,
				-0.010499999858438969,
				0.023000000044703484
			]
		},
		{
			"mesh":2,
			"name":"usb_housing",
			"translation":[
				0,
				0,
				0.014000000432133675
			]
		},
		{
			"mesh":3,
			"name":"usb_indicator_lens",
			"translation":[
				0,
				0.010499999858438969,
				-0.012000000104308128
			]
		},
		{
			"children":[
				0,
				1,
				2,
				3,
				4,
				5
			],
			"extras":{
				"asset_id":"usb_drive",
				"front_blender":"-Y",
				"units":"meters",
				"origin_convention":"geometric center of full drive; long axis +Y toward connector"
			},
			"name":"usb_drive"
		}
	],
	"materials":[
		{
			"name":"lab_warm",
			"pbrMetallicRoughness":{
				"baseColorFactor":[
					0.6399999856948853,
					0.6100000143051147,
					0.5400000214576721,
					1
				],
				"metallicFactor":0,
				"roughnessFactor":0.6800000071525574
			}
		},
		{
			"name":"lab_dark",
			"pbrMetallicRoughness":{
				"baseColorFactor":[
					0.024000000208616257,
					0.03200000151991844,
					0.03700000047683716,
					1
				],
				"metallicFactor":0,
				"roughnessFactor":0.6800000071525574
			}
		},
		{
			"name":"lab_orange",
			"pbrMetallicRoughness":{
				"baseColorFactor":[
					0.949999988079071,
					0.30000001192092896,
					0.054999999701976776,
					1
				],
				"metallicFactor":0,
				"roughnessFactor":0.6800000071525574
			}
		}
	],
	"meshes":[
		{
			"name":"usb_connector_mesh",
			"primitives":[
				{
					"attributes":{
						"POSITION":0,
						"NORMAL":1,
						"TEXCOORD_0":2,
						"TANGENT":3
					},
					"indices":4,
					"material":0
				}
			]
		},
		{
			"name":"usb_grip_mesh",
			"primitives":[
				{
					"attributes":{
						"POSITION":5,
						"NORMAL":6,
						"TEXCOORD_0":7,
						"TANGENT":8
					},
					"indices":9,
					"material":1
				}
			]
		},
		{
			"name":"usb_housing_mesh",
			"primitives":[
				{
					"attributes":{
						"POSITION":10,
						"NORMAL":11,
						"TEXCOORD_0":12,
						"TANGENT":13
					},
					"indices":4,
					"material":0
				}
			]
		},
		{
			"name":"usb_indicator_lens_mesh",
			"primitives":[
				{
					"attributes":{
						"POSITION":14,
						"NORMAL":15,
						"TEXCOORD_0":16,
						"TANGENT":17
					},
					"indices":4,
					"material":2
				}
			]
		}
	],
	"accessors":[
		{
			"bufferView":0,
			"componentType":5126,
			"count":96,
			"max":[
				0.014000000432133675,
				0.006000000052154064,
				0.014000000432133675
			],
			"min":[
				-0.014000000432133675,
				-0.006000000052154064,
				-0.014000000432133675
			],
			"type":"VEC3"
		},
		{
			"bufferView":1,
			"componentType":5126,
			"count":96,
			"type":"VEC3"
		},
		{
			"bufferView":2,
			"componentType":5126,
			"count":96,
			"type":"VEC2"
		},
		{
			"bufferView":3,
			"componentType":5126,
			"count":96,
			"type":"VEC4"
		},
		{
			"bufferView":4,
			"componentType":5123,
			"count":132,
			"type":"SCALAR"
		},
		{
			"bufferView":5,
			"componentType":5126,
			"count":240,
			"max":[
				0.017500000074505806,
				0.02149999886751175,
				0.023000000044703484
			],
			"min":[
				-0.017500000074505806,
				-0.0005000000237487257,
				-0.07000000029802322
			],
			"type":"VEC3"
		},
		{
			"bufferView":6,
			"componentType":5126,
			"count":240,
			"type":"VEC3"
		},
		{
			"bufferView":7,
			"componentType":5126,
			"count":240,
			"type":"VEC2"
		},
		{
			"bufferView":8,
			"componentType":5126,
			"count":240,
			"type":"VEC4"
		},
		{
			"bufferView":9,
			"componentType":5123,
			"count":336,
			"type":"SCALAR"
		},
		{
			"bufferView":10,
			"componentType":5126,
			"count":96,
			"max":[
				0.02250000089406967,
				0.009999999776482582,
				0.04100000113248825
			],
			"min":[
				-0.02250000089406967,
				-0.009999999776482582,
				-0.04100000113248825
			],
			"type":"VEC3"
		},
		{
			"bufferView":11,
			"componentType":5126,
			"count":96,
			"type":"VEC3"
		},
		{
			"bufferView":12,
			"componentType":5126,
			"count":96,
			"type":"VEC2"
		},
		{
			"bufferView":13,
			"componentType":5126,
			"count":96,
			"type":"VEC4"
		},
		{
			"bufferView":14,
			"componentType":5126,
			"count":96,
			"max":[
				0.004999999888241291,
				0.0005000000237487257,
				0.0024999999441206455
			],
			"min":[
				-0.004999999888241291,
				-0.0005000000237487257,
				-0.0024999999441206455
			],
			"type":"VEC3"
		},
		{
			"bufferView":15,
			"componentType":5126,
			"count":96,
			"type":"VEC3"
		},
		{
			"bufferView":16,
			"componentType":5126,
			"count":96,
			"type":"VEC2"
		},
		{
			"bufferView":17,
			"componentType":5126,
			"count":96,
			"type":"VEC4"
		}
	],
	"bufferViews":[
		{
			"buffer":0,
			"byteLength":1152,
			"byteOffset":0,
			"target":34962
		},
		{
			"buffer":0,
			"byteLength":1152,
			"byteOffset":1152,
			"target":34962
		},
		{
			"buffer":0,
			"byteLength":768,
			"byteOffset":2304,
			"target":34962
		},
		{
			"buffer":0,
			"byteLength":1536,
			"byteOffset":3072,
			"target":34962
		},
		{
			"buffer":0,
			"byteLength":264,
			"byteOffset":4608,
			"target":34963
		},
		{
			"buffer":0,
			"byteLength":2880,
			"byteOffset":4872,
			"target":34962
		},
		{
			"buffer":0,
			"byteLength":2880,
			"byteOffset":7752,
			"target":34962
		},
		{
			"buffer":0,
			"byteLength":1920,
			"byteOffset":10632,
			"target":34962
		},
		{
			"buffer":0,
			"byteLength":3840,
			"byteOffset":12552,
			"target":34962
		},
		{
			"buffer":0,
			"byteLength":672,
			"byteOffset":16392,
			"target":34963
		},
		{
			"buffer":0,
			"byteLength":1152,
			"byteOffset":17064,
			"target":34962
		},
		{
			"buffer":0,
			"byteLength":1152,
			"byteOffset":18216,
			"target":34962
		},
		{
			"buffer":0,
			"byteLength":768,
			"byteOffset":19368,
			"target":34962
		},
		{
			"buffer":0,
			"byteLength":1536,
			"byteOffset":20136,
			"target":34962
		},
		{
			"buffer":0,
			"byteLength":1152,
			"byteOffset":21672,
			"target":34962
		},
		{
			"buffer":0,
			"byteLength":1152,
			"byteOffset":22824,
			"target":34962
		},
		{
			"buffer":0,
			"byteLength":768,
			"byteOffset":23976,
			"target":34962
		},
		{
			"buffer":0,
			"byteLength":1536,
			"byteOffset":24744,
			"target":34962
		}
	],
	"buffers":[
		{
			"byteLength":26280,
			"uri":"usb_drive-098e421861caeb587c128c097c7dff6a.bin"
		}
	]
}
