{
	"asset":{
		"generator":"Khronos glTF Blender I/O v5.2.40",
		"version":"2.0"
	},
	"scene":0,
	"scenes":[
		{
			"extras":{
				"uuid":"8f8283af-2a08-4e77-a7c0-c063b861aa23",
				"assets reported":{},
				"vr_landmarks":[
					{
						"type":0,
						"base_scale":1.0
					}
				],
				"meshfixtool_properties":{
					"quad_boolean":1,
					"tri_boolean":0,
					"minor_parts_threshold":0.987680971622467,
					"spikes_angle_limit":9.550725936889648,
					"intersection_angle_limit":10.405797958374023,
					"minor_parts_boolean":1,
					"spikes_boolean":1,
					"intersection_boolean":1,
					"volume_intersection_boolean":1,
					"meshfixing":0,
					"sum_volumes":0,
					"sum_vertices":0,
					"sum_edges":0,
					"sum_faces":0,
					"sum_holes":0
				}
			},
			"name":"Scene",
			"nodes":[
				21
			]
		}
	],
	"nodes":[
		{
			"name":"anchor_mount"
		},
		{
			"extras":{
				"usable_width_m":0.4222588067273363,
				"usable_height_m":0.2609083481244743,
				"blender_axes":"local +X right, +Z up, -Y outward; glTF +X right, +Y up, +Z outward"
			},
			"name":"anchor_screen",
			"rotation":[
				-0.04361938312649727,
				0,
				0,
				0.9990482330322266
			],
			"translation":[
				-0.0656246542930603,
				0.19429214298725128,
				0.040193479508161545
			]
		},
		{
			"mesh":0,
			"name":"computer_port_a"
		},
		{
			"mesh":1,
			"name":"computer_port_b"
		},
		{
			"mesh":2,
			"name":"computer_tower"
		},
		{
			"mesh":3,
			"name":"keyboard_base"
		},
		{
			"mesh":4,
			"name":"keyboard_cable"
		},
		{
			"mesh":5,
			"name":"keyboard_keys"
		},
		{
			"mesh":6,
			"name":"monitor_base"
		},
		{
			"mesh":7,
			"name":"monitor_cable"
		},
		{
			"mesh":8,
			"name":"monitor_connector"
		},
		{
			"mesh":9,
			"name":"monitor_housing"
		},
		{
			"mesh":10,
			"name":"monitor_stand"
		},
		{
			"mesh":11,
			"name":"mouse_body"
		},
		{
			"mesh":12,
			"name":"mouse_buttons"
		},
		{
			"mesh":13,
			"name":"mouse_cable"
		},
		{
			"mesh":14,
			"name":"mouse_wheel"
		},
		{
			"mesh":15,
			"name":"screen_face"
		},
		{
			"mesh":16,
			"name":"tower_connector"
		},
		{
			"mesh":17,
			"name":"tower_side_panel"
		},
		{
			"mesh":18,
			"name":"tower_vent"
		},
		{
			"children":[
				0,
				1,
				2,
				3,
				4,
				5,
				6,
				7,
				8,
				9,
				10,
				11,
				12,
				13,
				14,
				15,
				16,
				17,
				18,
				19,
				20
			],
			"extras":{
				"asset_id":"workstation",
				"front_blender":"-Y",
				"units":"meters",
				"origin_convention":"center of footprint on support plane"
			},
			"name":"workstation"
		}
	],
	"materials":[
		{
			"name":"supplied_computer_1",
			"pbrMetallicRoughness":{
				"baseColorFactor":[
					0.02473803237080574,
					0.02473803237080574,
					0.02473803237080574,
					1
				],
				"metallicFactor":0,
				"roughnessFactor":0.5
			}
		},
		{
			"name":"supplied_computer_2",
			"pbrMetallicRoughness":{
				"baseColorFactor":[
					0.09934861958026886,
					0.09934861958026886,
					0.09934861958026886,
					1
				],
				"metallicFactor":0,
				"roughnessFactor":0.5
			}
		},
		{
			"name":"supplied_computer_7",
			"pbrMetallicRoughness":{
				"baseColorFactor":[
					0.30000001192092896,
					0.3400000035762787,
					0.3499999940395355,
					1
				],
				"metallicFactor":0.44999998807907104,
				"roughnessFactor":0.4000000059604645
			}
		},
		{
			"name":"supplied_computer_4",
			"pbrMetallicRoughness":{
				"baseColorFactor":[
					0.052149757742881775,
					0.052149757742881775,
					0.052149757742881775,
					1
				],
				"metallicFactor":0,
				"roughnessFactor":0.5
			}
		},
		{
			"name":"supplied_computer_3",
			"pbrMetallicRoughness":{
				"baseColorFactor":[
					0.2773650884628296,
					0.2773650884628296,
					0.2773650884628296,
					1
				],
				"metallicFactor":0,
				"roughnessFactor":0.5
			}
		},
		{
			"name":"supplied_computer_6",
			"pbrMetallicRoughness":{
				"baseColorFactor":[
					0.00800000037997961,
					0.012000000104308128,
					0.017999999225139618,
					1
				],
				"metallicFactor":0,
				"roughnessFactor":0.3499999940395355
			}
		},
		{
			"name":"supplied_computer_5",
			"pbrMetallicRoughness":{
				"baseColorFactor":[
					0.4162110686302185,
					0.4162110686302185,
					0.4162110686302185,
					1
				],
				"metallicFactor":0,
				"roughnessFactor":0.5
			}
		}
	],
	"meshes":[
		{
			"name":"computer_port_a_mesh",
			"primitives":[
				{
					"attributes":{
						"POSITION":0,
						"NORMAL":1,
						"TEXCOORD_0":2,
						"TANGENT":3
					},
					"indices":4,
					"material":0
				}
			]
		},
		{
			"name":"computer_port_b_mesh",
			"primitives":[
				{
					"attributes":{
						"POSITION":5,
						"NORMAL":6,
						"TEXCOORD_0":7,
						"TANGENT":8
					},
					"indices":4,
					"material":0
				}
			]
		},
		{
			"name":"computer_tower_mesh",
			"primitives":[
				{
					"attributes":{
						"POSITION":9,
						"NORMAL":10,
						"TEXCOORD_0":11,
						"TANGENT":12
					},
					"indices":13,
					"material":0
				}
			]
		},
		{
			"name":"keyboard_base_mesh",
			"primitives":[
				{
					"attributes":{
						"POSITION":14,
						"NORMAL":15,
						"TEXCOORD_0":16,
						"TANGENT":17
					},
					"indices":18,
					"material":1
				}
			]
		},
		{
			"name":"keyboard_cable_mesh",
			"primitives":[
				{
					"attributes":{
						"POSITION":19,
						"NORMAL":20,
						"TEXCOORD_0":21,
						"TANGENT":22
					},
					"indices":23,
					"material":0
				}
			]
		},
		{
			"name":"keyboard_keys_mesh",
			"primitives":[
				{
					"attributes":{
						"POSITION":24,
						"NORMAL":25,
						"TEXCOORD_0":26,
						"TANGENT":27
					},
					"indices":28,
					"material":0
				}
			]
		},
		{
			"name":"monitor_base_mesh",
			"primitives":[
				{
					"attributes":{
						"POSITION":29,
						"NORMAL":30,
						"TEXCOORD_0":31,
						"TANGENT":32
					},
					"indices":33,
					"material":0
				}
			]
		},
		{
			"name":"monitor_cable_mesh",
			"primitives":[
				{
					"attributes":{
						"POSITION":34,
						"NORMAL":35,
						"TEXCOORD_0":36,
						"TANGENT":37
					},
					"indices":38,
					"material":0
				}
			]
		},
		{
			"name":"monitor_connector_mesh",
			"primitives":[
				{
					"attributes":{
						"POSITION":39,
						"NORMAL":40,
						"TEXCOORD_0":41,
						"TANGENT":42
					},
					"indices":43,
					"material":2
				}
			]
		},
		{
			"name":"monitor_housing_mesh",
			"primitives":[
				{
					"attributes":{
						"POSITION":44,
						"NORMAL":45,
						"TEXCOORD_0":46
					},
					"indices":47,
					"material":0
				}
			]
		},
		{
			"name":"monitor_stand_mesh",
			"primitives":[
				{
					"attributes":{
						"POSITION":48,
						"NORMAL":49,
						"TEXCOORD_0":50,
						"TANGENT":51
					},
					"indices":52,
					"material":0
				}
			]
		},
		{
			"name":"mouse_body_mesh",
			"primitives":[
				{
					"attributes":{
						"POSITION":53,
						"NORMAL":54,
						"TEXCOORD_0":55
					},
					"indices":56,
					"material":0
				}
			]
		},
		{
			"name":"mouse_buttons_mesh",
			"primitives":[
				{
					"attributes":{
						"POSITION":57,
						"NORMAL":58,
						"TEXCOORD_0":59
					},
					"indices":60,
					"material":3
				}
			]
		},
		{
			"name":"mouse_cable_mesh",
			"primitives":[
				{
					"attributes":{
						"POSITION":61,
						"NORMAL":62,
						"TEXCOORD_0":63,
						"TANGENT":64
					},
					"indices":65,
					"material":0
				}
			]
		},
		{
			"name":"mouse_wheel_mesh",
			"primitives":[
				{
					"attributes":{
						"POSITION":66,
						"NORMAL":67,
						"TEXCOORD_0":68,
						"TANGENT":69
					},
					"indices":70,
					"material":4
				}
			]
		},
		{
			"name":"screen_face_mesh",
			"primitives":[
				{
					"attributes":{
						"POSITION":71,
						"NORMAL":72,
						"TEXCOORD_0":73,
						"TANGENT":74
					},
					"indices":75,
					"material":5
				}
			]
		},
		{
			"name":"tower_connector_mesh",
			"primitives":[
				{
					"attributes":{
						"POSITION":76,
						"NORMAL":77,
						"TEXCOORD_0":78,
						"TANGENT":79
					},
					"indices":80,
					"material":2
				}
			]
		},
		{
			"name":"tower_side_panel_mesh",
			"primitives":[
				{
					"attributes":{
						"POSITION":81,
						"NORMAL":82,
						"TEXCOORD_0":83
					},
					"indices":84,
					"material":4
				}
			]
		},
		{
			"name":"tower_vent_mesh",
			"primitives":[
				{
					"attributes":{
						"POSITION":85,
						"NORMAL":86,
						"TEXCOORD_0":87
					},
					"indices":88,
					"material":3
				},
				{
					"attributes":{
						"POSITION":89,
						"NORMAL":90,
						"TEXCOORD_0":91
					},
					"indices":92,
					"material":4
				},
				{
					"attributes":{
						"POSITION":93,
						"NORMAL":94,
						"TEXCOORD_0":95
					},
					"indices":96,
					"material":6
				}
			]
		}
	],
	"accessors":[
		{
			"bufferView":0,
			"componentType":5126,
			"count":128,
			"max":[
				0.15210407972335815,
				0.22213388979434967,
				-0.1340915709733963
			],
			"min":[
				0.1321040838956833,
				0.20713390409946442,
				-0.14009158313274384
			],
			"type":"VEC3"
		},
		{
			"bufferView":1,
			"componentType":5126,
			"count":128,
			"type":"VEC3"
		},
		{
			"bufferView":2,
			"componentType":5126,
			"count":128,
			"type":"VEC2"
		},
		{
			"bufferView":3,
			"componentType":5126,
			"count":128,
			"type":"VEC4"
		},
		{
			"bufferView":4,
			"componentType":5123,
			"count":180,
			"type":"SCALAR"
		},
		{
			"bufferView":5,
			"componentType":5126,
			"count":128,
			"max":[
				0.15210407972335815,
				0.22213388979434967,
				-0.14722631871700287
			],
			"min":[
				0.1321040838956833,
				0.20713390409946442,
				-0.1532263308763504
			],
			"type":"VEC3"
		},
		{
			"bufferView":6,
			"componentType":5126,
			"count":128,
			"type":"VEC3"
		},
		{
			"bufferView":7,
			"componentType":5126,
			"count":128,
			"type":"VEC2"
		},
		{
			"bufferView":8,
			"componentType":5126,
			"count":128,
			"type":"VEC4"
		},
		{
			"bufferView":9,
			"componentType":5126,
			"count":212,
			"max":[
				0.14731447398662567,
				0.3224741816520691,
				-0.11401625722646713
			],
			"min":[
				-0.27962982654571533,
				0.0015839849365875125,
				-0.3043171167373657
			],
			"type":"VEC3"
		},
		{
			"bufferView":10,
			"componentType":5126,
			"count":212,
			"type":"VEC3"
		},
		{
			"bufferView":11,
			"componentType":5126,
			"count":212,
			"type":"VEC2"
		},
		{
			"bufferView":12,
			"componentType":5126,
			"count":212,
			"type":"VEC4"
		},
		{
			"bufferView":13,
			"componentType":5123,
			"count":318,
			"type":"SCALAR"
		},
		{
			"bufferView":14,
			"componentType":5126,
			"count":34,
			"max":[
				0.16407983005046844,
				0.012652386911213398,
				0.27293241024017334
			],
			"min":[
				-0.28111550211906433,
				0.0012956110294908285,
				0.14703945815563202
			],
			"type":"VEC3"
		},
		{
			"bufferView":15,
			"componentType":5126,
			"count":34,
			"type":"VEC3"
		},
		{
			"bufferView":16,
			"componentType":5126,
			"count":34,
			"type":"VEC2"
		},
		{
			"bufferView":17,
			"componentType":5126,
			"count":34,
			"type":"VEC4"
		},
		{
			"bufferView":18,
			"componentType":5123,
			"count":48,
			"type":"SCALAR"
		},
		{
			"bufferView":19,
			"componentType":5126,
			"count":173,
			"max":[
				0.17902451753616333,
				0.21463383734226227,
				0.1499892771244049
			],
			"min":[
				-0.08233154565095901,
				0,
				-0.13748009502887726
			],
			"type":"VEC3"
		},
		{
			"bufferView":20,
			"componentType":5126,
			"count":173,
			"type":"VEC3"
		},
		{
			"bufferView":21,
			"componentType":5126,
			"count":173,
			"type":"VEC2"
		},
		{
			"bufferView":22,
			"componentType":5126,
			"count":173,
			"type":"VEC4"
		},
		{
			"bufferView":23,
			"componentType":5123,
			"count":714,
			"type":"SCALAR"
		},
		{
			"bufferView":24,
			"componentType":5126,
			"count":2568,
			"max":[
				0.15835662186145782,
				0.01842552237212658,
				0.26523086428642273
			],
			"min":[
				-0.2763005793094635,
				0.009837280958890915,
				0.1534700244665146
			],
			"type":"VEC3"
		},
		{
			"bufferView":25,
			"componentType":5126,
			"count":2568,
			"type":"VEC3"
		},
		{
			"bufferView":26,
			"componentType":5126,
			"count":2568,
			"type":"VEC2"
		},
		{
			"bufferView":27,
			"componentType":5126,
			"count":2568,
			"type":"VEC4"
		},
		{
			"bufferView":28,
			"componentType":5123,
			"count":3852,
			"type":"SCALAR"
		},
		{
			"bufferView":29,
			"componentType":5126,
			"count":360,
			"max":[
				0.018596641719341278,
				0.01023969054222107,
				0.09699060022830963
			],
			"min":[
				-0.1498480886220932,
				0.0007807910442352295,
				-0.039909206330776215
			],
			"type":"VEC3"
		},
		{
			"bufferView":30,
			"componentType":5126,
			"count":360,
			"type":"VEC3"
		},
		{
			"bufferView":31,
			"componentType":5126,
			"count":360,
			"type":"VEC2"
		},
		{
			"bufferView":32,
			"componentType":5126,
			"count":360,
			"type":"VEC4"
		},
		{
			"bufferView":33,
			"componentType":5123,
			"count":540,
			"type":"SCALAR"
		},
		{
			"bufferView":34,
			"componentType":5126,
			"count":82,
			"max":[
				0.22558577358722687,
				0.24722561240196228,
				0.03219833970069885
			],
			"min":[
				0.007699698209762573,
				0.0009863674640655518,
				-0.15047796070575714
			],
			"type":"VEC3"
		},
		{
			"bufferView":35,
			"componentType":5126,
			"count":82,
			"type":"VEC3"
		},
		{
			"bufferView":36,
			"componentType":5126,
			"count":82,
			"type":"VEC2"
		},
		{
			"bufferView":37,
			"componentType":5126,
			"count":82,
			"type":"VEC4"
		},
		{
			"bufferView":38,
			"componentType":5123,
			"count":336,
			"type":"SCALAR"
		},
		{
			"bufferView":39,
			"componentType":5126,
			"count":260,
			"max":[
				0.016880542039871216,
				0.1350787729024887,
				0.03221690654754639
			],
			"min":[
				0.001880548894405365,
				0.11269181221723557,
				0.025399070233106613
			],
			"type":"VEC3"
		},
		{
			"bufferView":40,
			"componentType":5126,
			"count":260,
			"type":"VEC3"
		},
		{
			"bufferView":41,
			"componentType":5126,
			"count":260,
			"type":"VEC2"
		},
		{
			"bufferView":42,
			"componentType":5126,
			"count":260,
			"type":"VEC4"
		},
		{
			"bufferView":43,
			"componentType":5123,
			"count":300,
			"type":"SCALAR"
		},
		{
			"bufferView":44,
			"componentType":5126,
			"count":78,
			"max":[
				0.1626395732164383,
				0.33736056089401245,
				0.05250956118106842
			],
			"min":[
				-0.2941744327545166,
				0.050324007868766785,
				0.013443974778056145
			],
			"type":"VEC3"
		},
		{
			"bufferView":45,
			"componentType":5126,
			"count":78,
			"type":"VEC3"
		},
		{
			"bufferView":46,
			"componentType":5126,
			"count":78,
			"type":"VEC2"
		},
		{
			"bufferView":47,
			"componentType":5123,
			"count":156,
			"type":"SCALAR"
		},
		{
			"bufferView":48,
			"componentType":5126,
			"count":56,
			"max":[
				-0.03668384999036789,
				0.2252393364906311,
				0.028729770332574844
			],
			"min":[
				-0.09469641745090485,
				0.007431462407112122,
				0.0007520290091633797
			],
			"type":"VEC3"
		},
		{
			"bufferView":49,
			"componentType":5126,
			"count":56,
			"type":"VEC3"
		},
		{
			"bufferView":50,
			"componentType":5126,
			"count":56,
			"type":"VEC2"
		},
		{
			"bufferView":51,
			"componentType":5126,
			"count":56,
			"type":"VEC4"
		},
		{
			"bufferView":52,
			"componentType":5123,
			"count":84,
			"type":"SCALAR"
		},
		{
			"bufferView":53,
			"componentType":5126,
			"count":149,
			"max":[
				0.2941743731498718,
				0.04408279061317444,
				0.3043171167373657
			],
			"min":[
				0.20462657511234283,
				0.0011669773375615478,
				0.1797502338886261
			],
			"type":"VEC3"
		},
		{
			"bufferView":54,
			"componentType":5126,
			"count":149,
			"type":"VEC3"
		},
		{
			"bufferView":55,
			"componentType":5126,
			"count":149,
			"type":"VEC2"
		},
		{
			"bufferView":56,
			"componentType":5123,
			"count":630,
			"type":"SCALAR"
		},
		{
			"bufferView":57,
			"componentType":5126,
			"count":109,
			"max":[
				0.27645087242126465,
				0.04346872493624687,
				0.24983717501163483
			],
			"min":[
				0.20551593601703644,
				0.013429229147732258,
				0.18287913501262665
			],
			"type":"VEC3"
		},
		{
			"bufferView":58,
			"componentType":5126,
			"count":109,
			"type":"VEC3"
		},
		{
			"bufferView":59,
			"componentType":5126,
			"count":109,
			"type":"VEC2"
		},
		{
			"bufferView":60,
			"componentType":5123,
			"count":141,
			"type":"SCALAR"
		},
		{
			"bufferView":61,
			"componentType":5126,
			"count":224,
			"max":[
				0.2853512167930603,
				0.21562357246875763,
				0.18788574635982513
			],
			"min":[
				0.15034370124340057,
				0.000786513090133667,
				-0.17914864420890808
			],
			"type":"VEC3"
		},
		{
			"bufferView":62,
			"componentType":5126,
			"count":224,
			"type":"VEC3"
		},
		{
			"bufferView":63,
			"componentType":5126,
			"count":224,
			"type":"VEC2"
		},
		{
			"bufferView":64,
			"componentType":5126,
			"count":224,
			"type":"VEC4"
		},
		{
			"bufferView":65,
			"componentType":5123,
			"count":960,
			"type":"SCALAR"
		},
		{
			"bufferView":66,
			"componentType":5126,
			"count":576,
			"max":[
				0.2413499802350998,
				0.04017479717731476,
				0.22177717089653015
			],
			"min":[
				0.23476888239383698,
				0.02673596888780594,
				0.20698761940002441
			],
			"type":"VEC3"
		},
		{
			"bufferView":67,
			"componentType":5126,
			"count":576,
			"type":"VEC3"
		},
		{
			"bufferView":68,
			"componentType":5126,
			"count":576,
			"type":"VEC2"
		},
		{
			"bufferView":69,
			"componentType":5126,
			"count":576,
			"type":"VEC4"
		},
		{
			"bufferView":70,
			"componentType":5123,
			"count":864,
			"type":"SCALAR"
		},
		{
			"bufferView":71,
			"componentType":5126,
			"count":4,
			"max":[
				0.1515047401189804,
				0.33009636402130127,
				0.05059197545051575
			],
			"min":[
				-0.2827540636062622,
				0.05822649598121643,
				0.026806393638253212
			],
			"type":"VEC3"
		},
		{
			"bufferView":72,
			"componentType":5126,
			"count":4,
			"type":"VEC3"
		},
		{
			"bufferView":73,
			"componentType":5126,
			"count":4,
			"type":"VEC2"
		},
		{
			"bufferView":74,
			"componentType":5126,
			"count":4,
			"type":"VEC4"
		},
		{
			"bufferView":75,
			"componentType":5123,
			"count":6,
			"type":"SCALAR"
		},
		{
			"bufferView":76,
			"componentType":5126,
			"count":514,
			"max":[
				0.15459229052066803,
				0.2540740966796875,
				-0.14649222791194916
			],
			"min":[
				0.1322668492794037,
				0.23907411098480225,
				-0.1524922251701355
			],
			"type":"VEC3"
		},
		{
			"bufferView":77,
			"componentType":5126,
			"count":514,
			"type":"VEC3"
		},
		{
			"bufferView":78,
			"componentType":5126,
			"count":514,
			"type":"VEC2"
		},
		{
			"bufferView":79,
			"componentType":5126,
			"count":514,
			"type":"VEC4"
		},
		{
			"bufferView":80,
			"componentType":5123,
			"count":588,
			"type":"SCALAR"
		},
		{
			"bufferView":81,
			"componentType":5126,
			"count":36,
			"max":[
				0.13337893784046173,
				0.31766074895858765,
				-0.1207839772105217
			],
			"min":[
				0.13237892091274261,
				0.0076607465744018555,
				-0.29880329966545105
			],
			"type":"VEC3"
		},
		{
			"bufferView":82,
			"componentType":5126,
			"count":36,
			"type":"VEC3"
		},
		{
			"bufferView":83,
			"componentType":5126,
			"count":36,
			"type":"VEC2"
		},
		{
			"bufferView":84,
			"componentType":5123,
			"count":60,
			"type":"SCALAR"
		},
		{
			"bufferView":85,
			"componentType":5126,
			"count":8,
			"max":[
				0.12968024611473083,
				0.30158478021621704,
				-0.2158346176147461
			],
			"min":[
				0.12956826388835907,
				0.24815839529037476,
				-0.26874786615371704
			],
			"type":"VEC3"
		},
		{
			"bufferView":86,
			"componentType":5126,
			"count":8,
			"type":"VEC3"
		},
		{
			"bufferView":87,
			"componentType":5126,
			"count":8,
			"type":"VEC2"
		},
		{
			"bufferView":88,
			"componentType":5123,
			"count":18,
			"type":"SCALAR"
		},
		{
			"bufferView":89,
			"componentType":5126,
			"count":68,
			"max":[
				0.13341103494167328,
				0.3209053874015808,
				-0.1981968730688095
			],
			"min":[
				0.12928283214569092,
				0.23892125487327576,
				-0.3015769422054291
			],
			"type":"VEC3"
		},
		{
			"bufferView":90,
			"componentType":5126,
			"count":68,
			"type":"VEC3"
		},
		{
			"bufferView":91,
			"componentType":5126,
			"count":68,
			"type":"VEC2"
		},
		{
			"bufferView":92,
			"componentType":5123,
			"count":90,
			"type":"SCALAR"
		},
		{
			"bufferView":93,
			"componentType":5126,
			"count":274,
			"max":[
				0.13349299132823944,
				0.30158478021621704,
				-0.2158346027135849
			],
			"min":[
				0.1333896517753601,
				0.24815839529037476,
				-0.26874783635139465
			],
			"type":"VEC3"
		},
		{
			"bufferView":94,
			"componentType":5126,
			"count":274,
			"type":"VEC3"
		},
		{
			"bufferView":95,
			"componentType":5126,
			"count":274,
			"type":"VEC2"
		},
		{
			"bufferView":96,
			"componentType":5123,
			"count":768,
			"type":"SCALAR"
		}
	],
	"bufferViews":[
		{
			"buffer":0,
			"byteLength":1536,
			"byteOffset":0,
			"target":34962
		},
		{
			"buffer":0,
			"byteLength":1536,
			"byteOffset":1536,
			"target":34962
		},
		{
			"buffer":0,
			"byteLength":1024,
			"byteOffset":3072,
			"target":34962
		},
		{
			"buffer":0,
			"byteLength":2048,
			"byteOffset":4096,
			"target":34962
		},
		{
			"buffer":0,
			"byteLength":360,
			"byteOffset":6144,
			"target":34963
		},
		{
			"buffer":0,
			"byteLength":1536,
			"byteOffset":6504,
			"target":34962
		},
		{
			"buffer":0,
			"byteLength":1536,
			"byteOffset":8040,
			"target":34962
		},
		{
			"buffer":0,
			"byteLength":1024,
			"byteOffset":9576,
			"target":34962
		},
		{
			"buffer":0,
			"byteLength":2048,
			"byteOffset":10600,
			"target":34962
		},
		{
			"buffer":0,
			"byteLength":2544,
			"byteOffset":12648,
			"target":34962
		},
		{
			"buffer":0,
			"byteLength":2544,
			"byteOffset":15192,
			"target":34962
		},
		{
			"buffer":0,
			"byteLength":1696,
			"byteOffset":17736,
			"target":34962
		},
		{
			"buffer":0,
			"byteLength":3392,
			"byteOffset":19432,
			"target":34962
		},
		{
			"buffer":0,
			"byteLength":636,
			"byteOffset":22824,
			"target":34963
		},
		{
			"buffer":0,
			"byteLength":408,
			"byteOffset":23460,
			"target":34962
		},
		{
			"buffer":0,
			"byteLength":408,
			"byteOffset":23868,
			"target":34962
		},
		{
			"buffer":0,
			"byteLength":272,
			"byteOffset":24276,
			"target":34962
		},
		{
			"buffer":0,
			"byteLength":544,
			"byteOffset":24548,
			"target":34962
		},
		{
			"buffer":0,
			"byteLength":96,
			"byteOffset":25092,
			"target":34963
		},
		{
			"buffer":0,
			"byteLength":2076,
			"byteOffset":25188,
			"target":34962
		},
		{
			"buffer":0,
			"byteLength":2076,
			"byteOffset":27264,
			"target":34962
		},
		{
			"buffer":0,
			"byteLength":1384,
			"byteOffset":29340,
			"target":34962
		},
		{
			"buffer":0,
			"byteLength":2768,
			"byteOffset":30724,
			"target":34962
		},
		{
			"buffer":0,
			"byteLength":1428,
			"byteOffset":33492,
			"target":34963
		},
		{
			"buffer":0,
			"byteLength":30816,
			"byteOffset":34920,
			"target":34962
		},
		{
			"buffer":0,
			"byteLength":30816,
			"byteOffset":65736,
			"target":34962
		},
		{
			"buffer":0,
			"byteLength":20544,
			"byteOffset":96552,
			"target":34962
		},
		{
			"buffer":0,
			"byteLength":41088,
			"byteOffset":117096,
			"target":34962
		},
		{
			"buffer":0,
			"byteLength":7704,
			"byteOffset":158184,
			"target":34963
		},
		{
			"buffer":0,
			"byteLength":4320,
			"byteOffset":165888,
			"target":34962
		},
		{
			"buffer":0,
			"byteLength":4320,
			"byteOffset":170208,
			"target":34962
		},
		{
			"buffer":0,
			"byteLength":2880,
			"byteOffset":174528,
			"target":34962
		},
		{
			"buffer":0,
			"byteLength":5760,
			"byteOffset":177408,
			"target":34962
		},
		{
			"buffer":0,
			"byteLength":1080,
			"byteOffset":183168,
			"target":34963
		},
		{
			"buffer":0,
			"byteLength":984,
			"byteOffset":184248,
			"target":34962
		},
		{
			"buffer":0,
			"byteLength":984,
			"byteOffset":185232,
			"target":34962
		},
		{
			"buffer":0,
			"byteLength":656,
			"byteOffset":186216,
			"target":34962
		},
		{
			"buffer":0,
			"byteLength":1312,
			"byteOffset":186872,
			"target":34962
		},
		{
			"buffer":0,
			"byteLength":672,
			"byteOffset":188184,
			"target":34963
		},
		{
			"buffer":0,
			"byteLength":3120,
			"byteOffset":188856,
			"target":34962
		},
		{
			"buffer":0,
			"byteLength":3120,
			"byteOffset":191976,
			"target":34962
		},
		{
			"buffer":0,
			"byteLength":2080,
			"byteOffset":195096,
			"target":34962
		},
		{
			"buffer":0,
			"byteLength":4160,
			"byteOffset":197176,
			"target":34962
		},
		{
			"buffer":0,
			"byteLength":600,
			"byteOffset":201336,
			"target":34963
		},
		{
			"buffer":0,
			"byteLength":936,
			"byteOffset":201936,
			"target":34962
		},
		{
			"buffer":0,
			"byteLength":936,
			"byteOffset":202872,
			"target":34962
		},
		{
			"buffer":0,
			"byteLength":624,
			"byteOffset":203808,
			"target":34962
		},
		{
			"buffer":0,
			"byteLength":312,
			"byteOffset":204432,
			"target":34963
		},
		{
			"buffer":0,
			"byteLength":672,
			"byteOffset":204744,
			"target":34962
		},
		{
			"buffer":0,
			"byteLength":672,
			"byteOffset":205416,
			"target":34962
		},
		{
			"buffer":0,
			"byteLength":448,
			"byteOffset":206088,
			"target":34962
		},
		{
			"buffer":0,
			"byteLength":896,
			"byteOffset":206536,
			"target":34962
		},
		{
			"buffer":0,
			"byteLength":168,
			"byteOffset":207432,
			"target":34963
		},
		{
			"buffer":0,
			"byteLength":1788,
			"byteOffset":207600,
			"target":34962
		},
		{
			"buffer":0,
			"byteLength":1788,
			"byteOffset":209388,
			"target":34962
		},
		{
			"buffer":0,
			"byteLength":1192,
			"byteOffset":211176,
			"target":34962
		},
		{
			"buffer":0,
			"byteLength":1260,
			"byteOffset":212368,
			"target":34963
		},
		{
			"buffer":0,
			"byteLength":1308,
			"byteOffset":213628,
			"target":34962
		},
		{
			"buffer":0,
			"byteLength":1308,
			"byteOffset":214936,
			"target":34962
		},
		{
			"buffer":0,
			"byteLength":872,
			"byteOffset":216244,
			"target":34962
		},
		{
			"buffer":0,
			"byteLength":282,
			"byteOffset":217116,
			"target":34963
		},
		{
			"buffer":0,
			"byteLength":2688,
			"byteOffset":217400,
			"target":34962
		},
		{
			"buffer":0,
			"byteLength":2688,
			"byteOffset":220088,
			"target":34962
		},
		{
			"buffer":0,
			"byteLength":1792,
			"byteOffset":222776,
			"target":34962
		},
		{
			"buffer":0,
			"byteLength":3584,
			"byteOffset":224568,
			"target":34962
		},
		{
			"buffer":0,
			"byteLength":1920,
			"byteOffset":228152,
			"target":34963
		},
		{
			"buffer":0,
			"byteLength":6912,
			"byteOffset":230072,
			"target":34962
		},
		{
			"buffer":0,
			"byteLength":6912,
			"byteOffset":236984,
			"target":34962
		},
		{
			"buffer":0,
			"byteLength":4608,
			"byteOffset":243896,
			"target":34962
		},
		{
			"buffer":0,
			"byteLength":9216,
			"byteOffset":248504,
			"target":34962
		},
		{
			"buffer":0,
			"byteLength":1728,
			"byteOffset":257720,
			"target":34963
		},
		{
			"buffer":0,
			"byteLength":48,
			"byteOffset":259448,
			"target":34962
		},
		{
			"buffer":0,
			"byteLength":48,
			"byteOffset":259496,
			"target":34962
		},
		{
			"buffer":0,
			"byteLength":32,
			"byteOffset":259544,
			"target":34962
		},
		{
			"buffer":0,
			"byteLength":64,
			"byteOffset":259576,
			"target":34962
		},
		{
			"buffer":0,
			"byteLength":12,
			"byteOffset":259640,
			"target":34963
		},
		{
			"buffer":0,
			"byteLength":6168,
			"byteOffset":259652,
			"target":34962
		},
		{
			"buffer":0,
			"byteLength":6168,
			"byteOffset":265820,
			"target":34962
		},
		{
			"buffer":0,
			"byteLength":4112,
			"byteOffset":271988,
			"target":34962
		},
		{
			"buffer":0,
			"byteLength":8224,
			"byteOffset":276100,
			"target":34962
		},
		{
			"buffer":0,
			"byteLength":1176,
			"byteOffset":284324,
			"target":34963
		},
		{
			"buffer":0,
			"byteLength":432,
			"byteOffset":285500,
			"target":34962
		},
		{
			"buffer":0,
			"byteLength":432,
			"byteOffset":285932,
			"target":34962
		},
		{
			"buffer":0,
			"byteLength":288,
			"byteOffset":286364,
			"target":34962
		},
		{
			"buffer":0,
			"byteLength":120,
			"byteOffset":286652,
			"target":34963
		},
		{
			"buffer":0,
			"byteLength":96,
			"byteOffset":286772,
			"target":34962
		},
		{
			"buffer":0,
			"byteLength":96,
			"byteOffset":286868,
			"target":34962
		},
		{
			"buffer":0,
			"byteLength":64,
			"byteOffset":286964,
			"target":34962
		},
		{
			"buffer":0,
			"byteLength":36,
			"byteOffset":287028,
			"target":34963
		},
		{
			"buffer":0,
			"byteLength":816,
			"byteOffset":287064,
			"target":34962
		},
		{
			"buffer":0,
			"byteLength":816,
			"byteOffset":287880,
			"target":34962
		},
		{
			"buffer":0,
			"byteLength":544,
			"byteOffset":288696,
			"target":34962
		},
		{
			"buffer":0,
			"byteLength":180,
			"byteOffset":289240,
			"target":34963
		},
		{
			"buffer":0,
			"byteLength":3288,
			"byteOffset":289420,
			"target":34962
		},
		{
			"buffer":0,
			"byteLength":3288,
			"byteOffset":292708,
			"target":34962
		},
		{
			"buffer":0,
			"byteLength":2192,
			"byteOffset":295996,
			"target":34962
		},
		{
			"buffer":0,
			"byteLength":1536,
			"byteOffset":298188,
			"target":34963
		}
	],
	"buffers":[
		{
			"byteLength":299724,
			"uri":"workstation-49ea73c0e109bacb8573d4e8e4738afc.bin"
		}
	]
}
